<?xml version="1.0" encoding="UTF-8"?>
<svg version="1.1" xmlns="http://www.w3.org/2000/svg" width="500" height="500">
<path d="M0 0 C1.05574219 0.02707031 1.05574219 0.02707031 2.1328125 0.0546875 C9.00409419 0.47336775 14.8463995 3.0496436 21 6 C21.73476563 6.34804687 22.46953125 6.69609375 23.2265625 7.0546875 C31.90488029 11.79145857 38.42323988 20.57962689 41.359375 29.921875 C43.46782197 40.05270557 43.17548418 50.70492837 43 61 C43.86882812 61.08636719 44.73765625 61.17273438 45.6328125 61.26171875 C57.33638863 62.68866483 57.33638863 62.68866483 62 68 C63.25509574 71.76528722 63.16367679 75.29230956 63.17700195 79.21582031 C63.18357315 80.05357498 63.19014435 80.89132965 63.19691467 81.75447083 C63.21663699 84.52902313 63.22830828 87.30352133 63.23828125 90.078125 C63.24235678 91.02646965 63.2464323 91.9748143 63.25063133 92.95189667 C63.27148814 97.9719979 63.2857912 102.99207184 63.29516602 108.01220703 C63.30622589 113.19177957 63.3406221 118.37092198 63.38033772 123.55034256 C63.40651049 127.5378498 63.41485847 131.52525469 63.41844749 135.51284027 C63.42331222 137.42176974 63.43492295 139.33069468 63.45348549 141.2395401 C63.47788967 143.91557175 63.47690962 146.5904922 63.4699707 149.26660156 C63.48918579 150.44205284 63.48918579 150.44205284 63.50878906 151.64125061 C63.45657474 157.18554862 62.26241653 160.47627236 59 165 C55.99065719 166.93186509 53.6448555 167.25084064 50.10412598 167.25396729 C48.62786491 167.26242676 48.62786491 167.26242676 47.1217804 167.27105713 C46.04840927 167.26700867 44.97503815 167.26296021 43.86914062 167.25878906 C42.16615059 167.26404602 42.16615059 167.26404602 40.42875671 167.26940918 C36.67119251 167.27822071 32.91381616 167.27237925 29.15625 167.265625 C26.54838017 167.26697181 23.94051058 167.26891248 21.3326416 167.27142334 C15.86513224 167.27506076 10.39767693 167.27026979 4.93017578 167.26074219 C-1.38871832 167.24985803 -7.70748336 167.25338377 -14.02637434 167.264395 C-20.10791707 167.27456799 -26.18940262 167.27348685 -32.27095032 167.26763153 C-34.85777301 167.26629559 -37.44459899 167.26794081 -40.03141785 167.27259064 C-43.64408139 167.27765901 -47.25649569 167.26994093 -50.86914062 167.25878906 C-51.94251175 167.26283752 -53.01588287 167.26688599 -54.1217804 167.27105713 C-55.10595444 167.26541748 -56.09012848 167.25977783 -57.10412598 167.25396729 C-58.38499966 167.25283621 -58.38499966 167.25283621 -59.69174957 167.25168228 C-62.19699614 166.97852034 -63.83463973 166.25795732 -66 165 C-66 164.34 -66 163.68 -66 163 C-66.66 163 -67.32 163 -68 163 C-70.58320963 159.12538628 -70.29560927 155.04321189 -70.29052734 150.56298828 C-70.29724457 149.71372772 -70.30396179 148.86446716 -70.31088257 147.98947144 C-70.32987456 145.18302554 -70.33378736 142.37681865 -70.3359375 139.5703125 C-70.34236458 137.61742047 -70.34909287 135.66452941 -70.35610962 133.7116394 C-70.36808538 129.61779549 -70.37179013 125.52403598 -70.37060547 121.43017578 C-70.37040226 116.18884877 -70.39770502 110.94806386 -70.43214989 105.70686531 C-70.45440642 101.67306033 -70.45844339 97.63938607 -70.45738602 93.60552597 C-70.45974383 91.67345181 -70.46857748 89.74137414 -70.48405075 87.8093605 C-70.50368553 85.10445636 -70.49788274 82.40072452 -70.48583984 79.69580078 C-70.49707886 78.90079163 -70.50831787 78.10578247 -70.51989746 77.28668213 C-70.46111971 72.08142897 -69.43297479 69.13334184 -66 65 C-62.34744217 62.45170384 -59.64097047 61.85847364 -55.29296875 61.9296875 C-54.08483521 61.94491455 -54.08483521 61.94491455 -52.85229492 61.96044922 C-52.2410376 61.97350098 -51.62978027 61.98655273 -51 62 C-51.02094727 61.28046143 -51.04189453 60.56092285 -51.06347656 59.81958008 C-51.83166388 29.44944037 -51.83166388 29.44944037 -44 18 C-43.34 18 -42.68 18 -42 18 C-41.74089844 17.41089844 -41.48179687 16.82179687 -41.21484375 16.21484375 C-37.12257817 8.75402516 -28.75026769 4.6454247 -21 2 C-14.04025001 0.29121228 -7.14801183 -0.3927479 0 0 Z M-30.8125 29.25 C-35.10772715 39.19684181 -34.45749524 50.37121519 -34 61 C-32.95689295 62.26650985 -32.95689295 62.26650985 -30.63987732 62.12025452 C-29.07101524 62.1169236 -29.07101524 62.1169236 -27.47045898 62.11352539 C-25.69873573 62.11341209 -25.69873573 62.11341209 -23.89122009 62.11329651 C-21.96313255 62.10555458 -21.96313255 62.10555458 -19.99609375 62.09765625 C-18.68794205 62.0962413 -17.37979034 62.09482635 -16.03199768 62.09336853 C-12.54837141 62.0895441 -9.06478661 62.07971446 -5.58117676 62.06866455 C-2.02873292 62.05844882 1.52371759 62.05387056 5.07617188 62.04882812 C12.05079832 62.03809212 19.02539717 62.0210166 26 62 C26.02032035 58.95439314 26.03516367 55.90892335 26.046875 52.86328125 C26.05315918 52.00577271 26.05944336 51.14826416 26.06591797 50.26477051 C26.0944813 40.35567633 25.43401851 32.60307686 18.2421875 25.1875 C10.51780872 17.91749644 3.66441611 16.50757471 -6.70629883 16.57788086 C-16.95653598 16.92177288 -24.40034978 21.29008938 -30.8125 29.25 Z M-14.1875 89.1875 C-17.7139256 92.7139256 -19.85582356 95.90020657 -20.09375 101.015625 C-19.72014323 105.90987364 -18.13308007 109.15078734 -15 113 C-12.89424357 114.83300909 -12.89424357 114.83300909 -11 116 C-12.31058819 122.67208533 -14.20556633 129.04967431 -16.32299805 135.50195312 C-17.27754198 138.45437141 -18 140.87536577 -18 144 C-8.76 144 0.48 144 10 144 C9.31694875 137.69578835 9.31694875 137.69578835 7.80859375 131.859375 C7.58623047 131.18132812 7.36386719 130.50328125 7.13476562 129.8046875 C6.90466797 129.12664062 6.67457031 128.44859375 6.4375 127.75 C5.07526193 123.71207118 4 120.32908169 4 116 C4.99 115.34 5.98 114.68 7 114 C7 113.34 7 112.68 7 112 C7.66 112 8.32 112 9 112 C11.60832604 108.45267658 12.73128373 105.38903234 13 101 C11.72426391 95.43315162 9.22307445 90.7424097 4.6875 87.1875 C-2.5537364 83.98788391 -7.78068194 84.79066408 -14.1875 89.1875 Z " fill="#32B6C6" transform="translate(254,138)"/>
<path d="M0 0 C4.2124391 0.42676677 5.60759133 1.81054075 8.71484375 4.64453125 C14.07148107 9.40829803 19.68305355 13.63801571 25.55249023 17.7512207 C27.16123048 18.89887717 28.72434625 20.11000043 30.27734375 21.33203125 C30.27734375 21.99203125 30.27734375 22.65203125 30.27734375 23.33203125 C30.86 23.59757812 31.44265625 23.863125 32.04296875 24.13671875 C34.33908603 25.36506121 36.08090393 26.73518064 38.02734375 28.45703125 C38.6409375 28.99585938 39.25453125 29.5346875 39.88671875 30.08984375 C40.345625 30.49976563 40.80453125 30.9096875 41.27734375 31.33203125 C38.04429348 35.91218581 34.17875712 39.59386593 29.27734375 42.33203125 C26.27789053 42.26682575 24.90674682 41.64673279 22.27734375 40.33203125 C22.27734375 39.67203125 22.27734375 39.01203125 22.27734375 38.33203125 C21.76171875 38.10515625 21.24609375 37.87828125 20.71484375 37.64453125 C17.3818737 35.84985507 14.13030704 33.8323811 11.27734375 31.33203125 C11.27734375 30.67203125 11.27734375 30.01203125 11.27734375 29.33203125 C10.51421875 29.04328125 9.75109375 28.75453125 8.96484375 28.45703125 C6.27734375 27.33203125 6.27734375 27.33203125 3.27734375 25.33203125 C3.27734375 24.67203125 3.27734375 24.01203125 3.27734375 23.33203125 C1.62734375 22.67203125 -0.02265625 22.01203125 -1.72265625 21.33203125 C-1.72265625 21.99203125 -1.72265625 22.65203125 -1.72265625 23.33203125 C-3.85304988 25.16321229 -5.99019885 26.88336087 -8.22265625 28.58203125 C-8.86106445 29.07421143 -9.49947266 29.5663916 -10.15722656 30.07348633 C-11.4288006 31.05200481 -12.7025298 32.02772977 -13.97851562 33.00048828 C-15.44698714 34.12157502 -16.90623321 35.25473104 -18.36328125 36.390625 C-23.46726057 40.33203125 -23.46726057 40.33203125 -25.72265625 40.33203125 C-25.72265625 40.99203125 -25.72265625 41.65203125 -25.72265625 42.33203125 C-27.37265625 42.99203125 -29.02265625 43.65203125 -30.72265625 44.33203125 C-30.72265625 44.99203125 -30.72265625 45.65203125 -30.72265625 46.33203125 C-31.71265625 46.82703125 -31.71265625 46.82703125 -32.72265625 47.33203125 C-32.72265625 56.90203125 -32.72265625 66.47203125 -32.72265625 76.33203125 C-32.06265625 76.33203125 -31.40265625 76.33203125 -30.72265625 76.33203125 C-28.21075493 78.64562457 -25.98270873 80.99127283 -23.91015625 83.70703125 C-21.48753955 86.61417129 -18.82330318 88.90647674 -15.95703125 91.36328125 C-4.00981364 101.89020027 -4.00981364 101.89020027 -3.49804688 108.02416992 C-3.36883966 111.52256123 -3.28887023 115.01938694 -3.22265625 118.51953125 C-3.16851562 119.72673828 -3.114375 120.93394531 -3.05859375 122.17773438 C-2.96488001 128.29925007 -3.06004734 132.40575062 -7.12890625 137.1953125 C-10.28648465 140.33203125 -10.28648465 140.33203125 -12.72265625 140.33203125 C-12.97668213 140.9107196 -13.23070801 141.48940796 -13.49243164 142.08563232 C-14.86120219 144.58501712 -16.39487484 146.2582232 -18.40625 148.27441406 C-19.16043213 149.03490051 -19.91461426 149.79538696 -20.69165039 150.57891846 C-21.91356079 151.79475616 -21.91356079 151.79475616 -23.16015625 153.03515625 C-23.99603271 153.87294617 -24.83190918 154.71073608 -25.69311523 155.57391357 C-27.45929182 157.34145028 -29.22799313 159.10646727 -30.99902344 160.86914062 C-33.71912506 163.57851399 -36.42837624 166.2984089 -39.13671875 169.01953125 C-40.85222342 170.73371482 -42.56834811 172.44727815 -44.28515625 174.16015625 C-45.09976318 174.97881165 -45.91437012 175.79746704 -46.75366211 176.64093018 C-47.8849353 177.76274689 -47.8849353 177.76274689 -49.0390625 178.90722656 C-49.70365479 179.57022766 -50.36824707 180.23322876 -51.05297852 180.9163208 C-52.72265625 182.33203125 -52.72265625 182.33203125 -54.72265625 182.33203125 C-54.72265625 182.99203125 -54.72265625 183.65203125 -54.72265625 184.33203125 C-57.01963171 185.77827506 -58.33466324 186.35845602 -61.07421875 186.171875 C-64.47674555 185.09290264 -65.98916204 183.42977037 -68.41015625 180.83203125 C-71.25123195 177.66006448 -71.25123195 177.66006448 -74.72265625 175.33203125 C-74.72265625 174.67203125 -74.72265625 174.01203125 -74.72265625 173.33203125 C-75.38265625 173.33203125 -76.04265625 173.33203125 -76.72265625 173.33203125 C-76.72265625 172.67203125 -76.72265625 172.01203125 -76.72265625 171.33203125 C-77.38265625 171.33203125 -78.04265625 171.33203125 -78.72265625 171.33203125 C-78.72265625 170.67203125 -78.72265625 170.01203125 -78.72265625 169.33203125 C-79.38265625 169.33203125 -80.04265625 169.33203125 -80.72265625 169.33203125 C-80.72265625 168.67203125 -80.72265625 168.01203125 -80.72265625 167.33203125 C-81.38265625 167.33203125 -82.04265625 167.33203125 -82.72265625 167.33203125 C-84.125 165.87109375 -84.125 165.87109375 -85.66015625 163.95703125 C-87.64252242 161.49301601 -89.0296528 160.12736688 -91.72265625 158.33203125 C-91.72265625 157.67203125 -91.72265625 157.01203125 -91.72265625 156.33203125 C-93.04265625 155.67203125 -94.36265625 155.01203125 -95.72265625 154.33203125 C-95.72265625 153.67203125 -95.72265625 153.01203125 -95.72265625 152.33203125 C-96.71265625 152.00203125 -97.70265625 151.67203125 -98.72265625 151.33203125 C-101.03515625 149.20703125 -101.03515625 149.20703125 -103.72265625 146.33203125 C-104.52509766 145.48511719 -104.52509766 145.48511719 -105.34375 144.62109375 C-110.83471464 138.59025009 -110.83471464 138.59025009 -110.72265625 134.33203125 C-108.87374522 130.84818339 -106.75656388 128.10172596 -104.00488281 125.29199219 C-102.8979306 124.15621735 -102.8979306 124.15621735 -101.76861572 122.99749756 C-100.57797516 121.79410736 -100.57797516 121.79410736 -99.36328125 120.56640625 C-98.5406781 119.73240295 -97.71807495 118.89839966 -96.87054443 118.03912354 C-95.13169535 116.28141643 -93.38994627 114.52657412 -91.64550781 112.77441406 C-88.982074 110.09151781 -86.34072272 107.38806094 -83.69921875 104.68359375 C-82.0052306 102.97654935 -80.30996005 101.27077637 -78.61328125 99.56640625 C-77.8276178 98.75604919 -77.04195435 97.94569214 -76.23248291 97.11077881 C-70.02911256 90.95701545 -70.02911256 90.95701545 -65.79199219 90.25488281 C-62.72265625 90.33203125 -62.72265625 90.33203125 -60.72265625 91.33203125 C-60.72265625 91.99203125 -60.72265625 92.65203125 -60.72265625 93.33203125 C-60.17899414 93.54972168 -59.63533203 93.76741211 -59.07519531 93.99169922 C-55.93129707 95.78289903 -53.59317958 98.21479706 -51.08203125 100.77734375 C-50.55498596 101.30721893 -50.02794067 101.83709412 -49.48492432 102.38302612 C-47.8093995 104.0697095 -46.14097903 105.76322689 -44.47265625 107.45703125 C-43.33509774 108.60462513 -42.19708189 109.75176586 -41.05859375 110.8984375 C-38.2746216 113.70441262 -35.49699865 116.51653589 -32.72265625 119.33203125 C-34.39398044 122.87226772 -36.35604958 125.32550379 -39.09765625 128.14453125 C-40.25394531 129.36076172 -40.25394531 129.36076172 -41.43359375 130.6015625 C-43.72265625 132.33203125 -43.72265625 132.33203125 -45.65869141 132.13330078 C-48.07159227 131.1965678 -49.25720898 130.11375282 -51.03515625 128.2421875 C-51.63585937 127.62279297 -52.2365625 127.00339844 -52.85546875 126.36523438 C-53.77972656 125.38973633 -53.77972656 125.38973633 -54.72265625 124.39453125 C-55.94701284 123.1099814 -57.17603447 121.82985839 -58.41015625 120.5546875 C-58.95027344 119.98500244 -59.49039063 119.41531738 -60.046875 118.82836914 C-61.82837947 117.23762892 -63.54909592 116.30012981 -65.72265625 115.33203125 C-72.80736568 121.24984736 -79.25114229 127.76344458 -85.72265625 134.33203125 C-84.28993002 137.61414389 -82.52505165 139.77154738 -79.97265625 142.26953125 C-79.26625 142.96175781 -78.55984375 143.65398437 -77.83203125 144.3671875 C-76.01195994 146.06255022 -74.16153511 147.65131178 -72.22265625 149.20703125 C-71.39765625 149.90828125 -70.57265625 150.60953125 -69.72265625 151.33203125 C-69.72265625 151.99203125 -69.72265625 152.65203125 -69.72265625 153.33203125 C-69.16578125 153.55890625 -68.60890625 153.78578125 -68.03515625 154.01953125 C-65.09018941 155.69099891 -63.04109081 157.88479477 -60.72265625 160.33203125 C-56.62729883 158.71708107 -53.93560734 155.76581046 -50.93359375 152.66796875 C-50.38909576 152.11589752 -49.84459778 151.56382629 -49.28359985 150.99502563 C-47.55005031 149.23710063 -45.82312037 147.47289085 -44.09765625 145.70703125 C-41.81947864 143.37584341 -39.53489751 141.05121899 -37.24609375 138.73046875 C-36.72212006 138.18989838 -36.19814636 137.649328 -35.65829468 137.09237671 C-34.38396251 135.80077367 -33.05758254 134.5609058 -31.72265625 133.33203125 C-31.06265625 133.33203125 -30.40265625 133.33203125 -29.72265625 133.33203125 C-29.72265625 132.67203125 -29.72265625 132.01203125 -29.72265625 131.33203125 C-29.06265625 131.33203125 -28.40265625 131.33203125 -27.72265625 131.33203125 C-27.48804688 130.76613281 -27.2534375 130.20023438 -27.01171875 129.6171875 C-24.91901695 125.90739794 -21.70948116 123.3417902 -18.62109375 120.453125 C-16.38919866 118.43389695 -16.38919866 118.43389695 -16.72265625 115.33203125 C-17.38265625 115.33203125 -18.04265625 115.33203125 -18.72265625 115.33203125 C-18.72265625 114.67203125 -18.72265625 114.01203125 -18.72265625 113.33203125 C-19.38265625 113.33203125 -20.04265625 113.33203125 -20.72265625 113.33203125 C-20.72265625 112.67203125 -20.72265625 112.01203125 -20.72265625 111.33203125 C-21.38265625 111.33203125 -22.04265625 111.33203125 -22.72265625 111.33203125 C-22.72265625 110.67203125 -22.72265625 110.01203125 -22.72265625 109.33203125 C-23.38265625 109.33203125 -24.04265625 109.33203125 -24.72265625 109.33203125 C-24.72265625 108.67203125 -24.72265625 108.01203125 -24.72265625 107.33203125 C-25.38265625 107.33203125 -26.04265625 107.33203125 -26.72265625 107.33203125 C-27.92356846 105.89760833 -29.11979467 104.45874154 -30.28125 102.9921875 C-31.7497116 101.30086994 -33.28171442 99.97069086 -35.03515625 98.58203125 C-35.92203125 97.83953125 -36.80890625 97.09703125 -37.72265625 96.33203125 C-37.72265625 95.67203125 -37.72265625 95.01203125 -37.72265625 94.33203125 C-38.38265625 94.33203125 -39.04265625 94.33203125 -39.72265625 94.33203125 C-39.72265625 93.67203125 -39.72265625 93.01203125 -39.72265625 92.33203125 C-41.20765625 91.83703125 -41.20765625 91.83703125 -42.72265625 91.33203125 C-42.72265625 90.67203125 -42.72265625 90.01203125 -42.72265625 89.33203125 C-43.38265625 89.33203125 -44.04265625 89.33203125 -44.72265625 89.33203125 C-48.57458098 86.52802007 -51.23333531 82.93707919 -52.1239624 78.19555664 C-52.64077927 72.93937881 -52.58865511 67.68577897 -52.47045898 62.41064453 C-52.40999679 59.5745515 -52.40890807 56.74289886 -52.41601562 53.90625 C-52.40061618 52.09501914 -52.3818536 50.28381308 -52.359375 48.47265625 C-52.35806076 47.62987122 -52.35674652 46.78708618 -52.35539246 45.91876221 C-52.21115792 40.79799646 -51.55382341 38.05785582 -47.72265625 34.33203125 C-45.55859375 32.5859375 -45.55859375 32.5859375 -43.09765625 30.89453125 C-37.93556627 27.24665433 -32.94476826 23.42201509 -27.97265625 19.51953125 C-20.90497519 13.98376503 -13.73753757 8.61190761 -6.46875 3.34375 C-2.2847017 0.27862216 -2.2847017 0.27862216 0 0 Z " fill="#49545A" transform="translate(180.72265625,101.66796875)"/>
<path d="M0 0 C2.59488214 1.69339568 4.69448635 3.81015171 6.875 6 C7.51268311 6.61705811 8.15036621 7.23411621 8.80737305 7.86987305 C10.88980596 9.89562046 12.94713908 11.9443082 15 14 C15.73331543 14.7317041 16.46663086 15.4634082 17.22216797 16.21728516 C23.07981158 22.06727672 23.07981158 22.06727672 25.89599609 24.93164062 C26.5348877 25.57939453 27.1737793 26.22714844 27.83203125 26.89453125 C28.39639893 27.47050049 28.9607666 28.04646973 29.54223633 28.63989258 C30.97528421 30.10563383 30.97528421 30.10563383 33 31 C33 31.66 33 32.32 33 33 C33.66 33 34.32 33 35 33 C35 33.66 35 34.32 35 35 C35.66 35 36.32 35 37 35 C37 35.66 37 36.32 37 37 C37.66 37 38.32 37 39 37 C39 37.66 39 38.32 39 39 C39.66 39 40.32 39 41 39 C43 42 43 42 43.0390625 45.23901367 C41.64749712 50.27591797 39.10022034 52.646648 35.375 56.17578125 C34.71290527 56.82701462 34.05081055 57.47824799 33.36865234 58.1492157 C31.25951025 60.21829565 29.1307593 62.26571033 27 64.3125 C24.87375123 66.38136694 22.75169231 68.45442637 20.63134766 70.52934265 C19.31247724 71.81704878 17.98934474 73.10040671 16.66162109 74.37898254 C16.06430176 74.9568602 15.46698242 75.53473785 14.8515625 76.13012695 C14.32385254 76.63751907 13.79614258 77.14491119 13.25244141 77.66767883 C11.88103666 78.99894947 11.88103666 78.99894947 11 81 C10.34 81 9.68 81 9 81 C9 81.66 9 82.32 9 83 C7.390625 84.5859375 7.390625 84.5859375 5.25 86.375 C2.89252767 88.34850573 0.90013679 90.12104632 -1.0625 92.5 C-3 94 -3 94 -6.5 93.9375 C-9.79069697 93.05606331 -11.61350046 92.38649954 -14 90 C-14 89.34 -14 88.68 -14 88 C-14.66 88 -15.32 88 -16 88 C-16 87.34 -16 86.68 -16 86 C-16.59039062 85.73832031 -17.18078125 85.47664063 -17.7890625 85.20703125 C-20.11713599 83.9360512 -21.56029999 82.60869648 -23.375 80.6875 C-25.62010249 78.35026587 -27.85991152 76.27463591 -30.4375 74.3125 C-31.7059375 73.1678125 -31.7059375 73.1678125 -33 72 C-33 70.68 -33 69.36 -33 68 C-30.8125 66.0625 -30.8125 66.0625 -28 64 C-27.154375 63.071875 -26.30875 62.14375 -25.4375 61.1875 C-24.633125 60.465625 -23.82875 59.74375 -23 59 C-19.87596336 59.33359292 -17.95691222 60.56248737 -15.546875 62.50390625 C-14.928125 62.99697266 -14.309375 63.49003906 -13.671875 63.99804688 C-12.72054687 64.77245117 -12.72054687 64.77245117 -11.75 65.5625 C-11.1003125 66.08263672 -10.450625 66.60277344 -9.78125 67.13867188 C-8.18272331 68.419844 -6.59071374 69.70914005 -5 71 C-5 70.34 -5 69.68 -5 69 C-3.56557708 67.79908779 -2.12671029 66.60286158 -0.66015625 65.44140625 C1.03116131 63.97294465 2.36134039 62.44094183 3.75 60.6875 C4.4925 59.800625 5.235 58.91375 6 58 C6.66 58 7.32 58 8 58 C8 57.34 8 56.68 8 56 C8.66 56 9.32 56 10 56 C10 55.34 10 54.68 10 54 C10.66 54 11.32 54 12 54 C12 53.34 12 52.68 12 52 C12.66 52 13.32 52 14 52 C14 51.34 14 50.68 14 50 C14.66 50 15.32 50 16 50 C16.33 49.01 16.66 48.02 17 47 C17.66 47 18.32 47 19 47 C17.91286132 43.73858395 17.31971975 43.20884837 14.75 41.125 C8.45909851 35.80987702 2.77874426 29.85802581 -3 24 C-4.485 24.495 -4.485 24.495 -6 25 C-6 25.66 -6 26.32 -6 27 C-7.43621943 28.23581672 -8.87830536 29.46576988 -10.35546875 30.65234375 C-13.89385921 33.55197489 -16.90376769 36.86256853 -19.8125 40.375 C-22.59766881 43.67700426 -25.6663616 46.45441361 -28.97265625 49.2265625 C-34.11018766 53.72066512 -38.6715527 58.81786568 -43.3125 63.8125 C-44.28026367 64.85180664 -44.28026367 64.85180664 -45.26757812 65.91210938 C-46.84587161 67.60731349 -48.42332302 69.30329254 -50 71 C-40.00264054 82.89526985 -40.00264054 82.89526985 -28.62890625 93.4296875 C-26.84827429 95.14626795 -25.97268187 96.74181394 -25 99 C-24.34 99 -23.68 99 -23 99 C-18.9558254 102.14581254 -15.65759249 106.00437792 -14.53704834 111.10894775 C-13.94754406 116.11380313 -13.99036776 121.11114659 -14.12182617 126.14233398 C-14.18781694 128.82538598 -14.18338819 131.50183363 -14.16992188 134.18554688 C-14.1859785 135.90108524 -14.20601968 137.61659196 -14.23046875 139.33203125 C-14.22975876 140.12793167 -14.22904877 140.92383209 -14.22831726 141.74385071 C-14.36888627 145.8771583 -14.61691316 147.52894777 -17.30932617 150.83959961 C-18.19724854 151.55253174 -19.0851709 152.26546387 -20 153 C-20.64469238 153.56428711 -21.28938477 154.12857422 -21.95361328 154.70996094 C-22.56962402 155.21301758 -23.18563477 155.71607422 -23.8203125 156.234375 C-24.51471436 156.80373779 -25.20911621 157.37310059 -25.92456055 157.9597168 C-26.65070557 158.55051025 -27.37685059 159.14130371 -28.125 159.75 C-28.88272705 160.36979736 -29.6404541 160.98959473 -30.42114258 161.62817383 C-31.93077442 162.86271363 -33.44125057 164.09622182 -34.95263672 165.32861328 C-36.66116063 166.72338489 -38.36444049 168.12457707 -40.06640625 169.52734375 C-41.78671411 170.94512355 -43.51311204 172.35555249 -45.24609375 173.7578125 C-47.36328978 175.48160048 -49.45209597 177.22801409 -51.53515625 178.9921875 C-52.77292696 180.0162424 -54.0112031 181.03968671 -55.25 182.0625 C-55.81678467 182.55258545 -56.38356934 183.0426709 -56.9675293 183.54760742 C-59.86732574 185.90916644 -61.8721902 186.98025137 -65.58984375 187.5546875 C-69.63197472 186.89720457 -71.26828054 185.76487995 -74.3125 183.0625 C-75.25609375 182.24007812 -76.1996875 181.41765625 -77.171875 180.5703125 C-78.10515625 179.72210938 -79.0384375 178.87390625 -80 178 C-80.85078125 177.23429688 -81.7015625 176.46859375 -82.578125 175.6796875 C-84.22246523 174.19564459 -85.86188037 172.7061247 -87.49609375 171.2109375 C-90.92497969 168.18324726 -94.52588841 165.39951575 -98.1640625 162.62890625 C-99.07285156 161.82259766 -99.07285156 161.82259766 -100 161 C-100 160.34 -100 159.68 -100 159 C-100.8353125 158.62875 -100.8353125 158.62875 -101.6875 158.25 C-104.39971127 156.78393985 -106.63587365 154.97010529 -109 153 C-108.505 151.02 -108.505 151.02 -108 149 C-107.34 149 -106.68 149 -106 149 C-105.67 148.01 -105.34 147.02 -105 146 C-102.25 143.25 -102.25 143.25 -99 141 C-94.13117002 141.09031556 -91.25793548 143.96279313 -87.8125 147.0625 C-86.66501484 148.06489331 -85.51656686 149.06618546 -84.3671875 150.06640625 C-83.8009668 150.56285645 -83.23474609 151.05930664 -82.65136719 151.57080078 C-78.18480069 155.43645428 -73.56374223 159.20582019 -68.72265625 162.59375 C-68.15417969 163.0578125 -67.58570313 163.521875 -67 164 C-67 164.66 -67 165.32 -67 166 C-60.56966791 161.85096637 -60.56966791 161.85096637 -54.5625 157.125 C-52 155 -52 155 -50 155 C-50 154.34 -50 153.68 -50 153 C-48.32210126 151.64240067 -46.58056912 150.36288195 -44.8125 149.125 C-42.86994538 147.7571503 -40.93240465 146.38215177 -39 145 C-38.09894531 144.50113281 -37.19789063 144.00226563 -36.26953125 143.48828125 C-31.69185876 138.46938731 -32.00081254 131.94570399 -31.71679688 125.43701172 C-32.18612457 115.73883441 -35.50965666 111.39208839 -42.40447998 104.9969635 C-44.41907938 103.18569313 -46.45564988 101.40258662 -48.5 99.625 C-64.72255477 85.37603837 -64.72255477 85.37603837 -65.90283203 73.50415039 C-65.82637775 63.19154097 -63.9531789 55.70040314 -56.95361328 47.94433594 C-47.72480798 39 -47.72480798 39 -44 39 C-43.75894531 38.4328125 -43.51789063 37.865625 -43.26953125 37.28125 C-40.32115656 31.98324749 -35.10424795 27.65333767 -30.375 23.9375 C-27.39101208 21.50319406 -25.08544984 18.67886304 -22.6484375 15.70703125 C-21 14 -21 14 -18 13 C-18 12.34 -18 11.68 -18 11 C-17.34 11 -16.68 11 -16 11 C-16 10.34 -16 9.68 -16 9 C-15.34 9 -14.68 9 -14 9 C-14 8.34 -14 7.68 -14 7 C-13.34 7 -12.68 7 -12 7 C-12 6.34 -12 5.68 -12 5 C-8.00312634 1.00312634 -5.90235069 -0.95984829 0 0 Z " fill="#48535A" transform="translate(387,192)"/>
<path d="M0 0 C0.66 0.33 1.32 0.66 2 1 C2.1164862 4.72890255 2.18734576 8.45733514 2.25 12.1875 C2.30027344 13.77014648 2.30027344 13.77014648 2.3515625 15.38476562 C2.45057045 23.23114579 2.45057045 23.23114579 0.23046875 27.01953125 C-0.50558594 27.67308594 -1.24164063 28.32664062 -2 29 C-2.64839844 29.6084375 -3.29679687 30.216875 -3.96484375 30.84375 C-4.61582031 31.3903125 -5.26679688 31.936875 -5.9375 32.5 C-8.19482713 34.40279663 -10.29994209 36.30888076 -12.359375 38.4296875 C-15 41 -15 41 -18.11328125 43.1640625 C-22.91396062 46.67967078 -26.27655707 50.11043433 -27.75585938 56.01904297 C-28.92516754 64.28652898 -29.88191025 74.55150302 -25.84863281 82.17675781 C-23.06259142 85.62586542 -19.64931147 87.85951456 -15.796875 89.98535156 C-12.91545592 91.61241375 -10.3439296 93.59093116 -7.6875 95.5625 C-6.78386719 96.18253906 -5.88023437 96.80257812 -4.94921875 97.44140625 C-4.30597656 97.95574219 -3.66273438 98.47007812 -3 99 C-3 99.66 -3 100.32 -3 101 C-2.4225 101.28875 -1.845 101.5775 -1.25 101.875 C0.83333333 102.91666667 2.91666667 103.95833333 5 105 C5 104.34 5 103.68 5 103 C5.66 103 6.32 103 7 103 C7 102.34 7 101.68 7 101 C8.609375 99.34375 8.609375 99.34375 10.75 97.5 C11.44609375 96.8915625 12.1421875 96.283125 12.859375 95.65625 C14.84460792 94.12023037 16.71872045 93.0276034 19 92 C19 91.34 19 90.68 19 90 C20.328125 88.6953125 20.328125 88.6953125 22.25 87.125 C26.03031015 83.92112012 29.52672174 80.52690695 33 77 C36.99015549 72.95848793 41.03749005 69.07154067 45.37890625 65.40234375 C47.04119778 64.04691417 47.04119778 64.04691417 48.33203125 62.359375 C52.30816759 59.11887045 59.03940066 60.13697007 64 60 C64.75442383 59.97808594 65.50884766 59.95617187 66.28613281 59.93359375 C68.60751982 59.87563153 70.92805316 59.83899268 73.25 59.8125 C73.98879395 59.79936768 74.72758789 59.78623535 75.48876953 59.77270508 C77.32740592 59.7699121 79.1655176 59.87644468 81 60 C81.66 60.66 82.32 61.32 83 62 C80.97739045 64.04361588 78.93563618 66.05785936 76.875 68.0625 C76.30523437 68.64322266 75.73546875 69.22394531 75.1484375 69.82226562 C73.48921 71.41550112 71.97023004 72.80945142 70 74 C67.99274011 73.71361065 65.99114217 73.38270609 64 73 C61.14444406 75.04215536 61.14444406 75.04215536 58.625 78 C55.60010721 81.28365943 52.62652946 84.38067149 49.234375 87.28515625 C43.55550111 92.17062839 38.407455 97.58158819 33.18359375 102.94335938 C32.41402344 103.72388672 31.64445312 104.50441406 30.8515625 105.30859375 C30.15885254 106.01814209 29.46614258 106.72769043 28.75244141 107.45874023 C27 109 27 109 25 109 C25 109.66 25 110.32 25 111 C23.49609375 112.48046875 23.49609375 112.48046875 21.4375 114.1875 C17.9609005 117.12876471 14.7632889 120.20738532 11.640625 123.51953125 C8.86797729 126.02151574 7.05232228 126.98647014 3.265625 127.03515625 C-1.46027553 125.53711362 -4.54884472 122.65958012 -8.25 119.4375 C-9.7678314 118.15057239 -11.28605828 116.86411106 -12.8046875 115.578125 C-13.53010742 114.95744141 -14.25552734 114.33675781 -15.00292969 113.69726562 C-17.42058197 111.64255674 -19.88663883 109.65578568 -22.375 107.6875 C-27.62606135 103.50990945 -32.82257319 99.26841295 -38 95 C-38.73089844 94.40703125 -39.46179688 93.8140625 -40.21484375 93.203125 C-44.88511289 89.34466134 -44.88511289 89.34466134 -46 86 C-46.13303956 83.19369115 -46.21225613 80.41304118 -46.23828125 77.60546875 C-46.246353 76.78049393 -46.25442474 75.9555191 -46.26274109 75.10554504 C-46.27656573 73.35969128 -46.28729513 71.61381068 -46.29516602 69.86791992 C-46.31236972 67.20764533 -46.35626773 64.54861692 -46.40039062 61.88867188 C-46.41051904 60.19011328 -46.41903468 58.49154415 -46.42578125 56.79296875 C-46.44328934 56.00214401 -46.46079742 55.21131927 -46.47883606 54.39653015 C-46.44408186 45.47917603 -41.17028865 40.94261249 -35.14324951 34.91665649 C-34.24519592 34.02892548 -33.34714233 33.14119446 -32.421875 32.2265625 C-31.4953009 31.3028183 -30.56872681 30.3790741 -29.61407471 29.42733765 C-27.16570702 26.98656015 -24.71139092 24.55185229 -22.2557373 22.1184082 C-19.74495778 19.62818715 -17.2399193 17.13220523 -14.734375 14.63671875 C-9.82848383 9.75219594 -4.91627708 4.87406865 0 0 Z " fill="#48535A" transform="translate(175,253)"/>
<path d="M0 0 C-1.33803458 3.00874098 -2.77584376 4.98385643 -5.1953125 7.20703125 C-5.8248584 7.7901709 -6.4544043 8.37331055 -7.10302734 8.97412109 C-7.77027832 9.58078613 -8.4375293 10.18745117 -9.125 10.8125 C-9.80643066 11.43979004 -10.48786133 12.06708008 -11.18994141 12.71337891 C-15.13097562 16.33062144 -19.09504137 19.92003548 -23.15625 23.40234375 C-24.59060078 24.64524516 -26.0030245 25.91346874 -27.40625 27.19140625 C-28.2209375 27.93261719 -29.035625 28.67382812 -29.875 29.4375 C-30.98488281 30.45650391 -30.98488281 30.45650391 -32.1171875 31.49609375 C-34 33 -34 33 -36 33 C-36 33.66 -36 34.32 -36 35 C-37.22265625 36.26953125 -37.22265625 36.26953125 -39.0625 37.8125 C-39.784375 38.42609375 -40.50625 39.0396875 -41.25 39.671875 C-42.1575 40.44015625 -43.065 41.2084375 -44 42 C-46.52549069 44.18213746 -49.04330525 46.3730998 -51.5625 48.5625 C-53.42387757 50.17707038 -55.28622746 51.79040001 -57.15283203 53.39892578 C-58.42693647 54.50328435 -59.69310409 55.61684358 -60.95263672 56.73779297 C-61.57541504 57.28709473 -62.19819336 57.83639648 -62.83984375 58.40234375 C-63.67890259 59.15052368 -63.67890259 59.15052368 -64.53491211 59.91381836 C-66 61 -66 61 -68 61 C-65.00900348 65.087939 -61.60530623 68.07313356 -57.5625 71.0625 C-51.11243252 75.90932861 -51.11243252 75.90932861 -48.21484375 78.24609375 C-46.12898975 80.02078441 -46.12898975 80.02078441 -44 81 C-44 81.66 -44 82.32 -44 83 C-42.824375 82.01 -42.824375 82.01 -41.625 81 C-39 79 -39 79 -37 79 C-37 78.34 -37 77.68 -37 77 C-35.09255364 75.44151282 -33.18850141 73.99112731 -31.1875 72.5625 C-27.92677981 70.20817553 -24.80282674 67.89942222 -22 65 C-22.90363281 64.16855469 -23.80726563 63.33710938 -24.73828125 62.48046875 C-25.92971816 61.38284577 -27.12112271 60.28518768 -28.3125 59.1875 C-28.90740234 58.64029297 -29.50230469 58.09308594 -30.11523438 57.52929688 C-30.69208984 56.99755859 -31.26894531 56.46582031 -31.86328125 55.91796875 C-32.39219971 55.43094482 -32.92111816 54.9439209 -33.46606445 54.44213867 C-35.0092835 52.99127207 -36.51015856 51.50546232 -38 50 C-36.63055898 47.05043472 -35.12169591 44.47531189 -33 42 C-32.34 42 -31.68 42 -31 42 C-30.67 41.01 -30.34 40.02 -30 39 C-25.83532537 39.52422478 -23.77650766 41.79358143 -20.8125 44.625 C-16.69467312 48.49974628 -12.44554662 52.05237162 -7.94140625 55.46875 C-5.40087912 57.47254605 -3.21821771 59.64734485 -1 62 C-0.34 62.66 0.32 63.32 1 64 C1.75 67.125 1.75 67.125 1 71 C-2.74568612 74.87626968 -6.85514609 78.2850487 -12 80 C-12 80.66 -12 81.32 -12 82 C-13.8984375 83.7265625 -13.8984375 83.7265625 -16.375 85.625 C-17.18710937 86.25664062 -17.99921875 86.88828125 -18.8359375 87.5390625 C-21 89 -21 89 -23 89 C-23 89.66 -23 90.32 -23 91 C-24.43359375 92.26171875 -24.43359375 92.26171875 -26.4375 93.6875 C-30.3595385 96.5108114 -34.10267177 99.50001886 -37.82421875 102.58203125 C-40.29003912 104.18902011 -42.07437223 104.75303142 -45 105 C-47.23441921 103.75865599 -49.00415279 102.55334991 -51 101 C-51.71285156 100.49339844 -52.42570312 99.98679687 -53.16015625 99.46484375 C-57.39936207 96.42188649 -57.39936207 96.42188649 -59 95 C-59 94.34 -59 93.68 -59 93 C-59.56332031 92.74605469 -60.12664062 92.49210937 -60.70703125 92.23046875 C-63.30616832 90.83570184 -65.40630971 89.18226789 -67.6875 87.3125 C-71.84691005 83.9194597 -76.0762488 80.64915747 -80.3828125 77.4453125 C-80.91648438 76.96835937 -81.45015625 76.49140625 -82 76 C-82 75.34 -82 74.68 -82 74 C-82.721875 73.773125 -83.44375 73.54625 -84.1875 73.3125 C-87.7044249 71.67126838 -89.65463317 70.10416199 -92 67 C-91.98414714 62.50307203 -91.44925229 60.5212165 -88.48828125 57.0859375 C-87.4448249 56.16485371 -86.3856318 55.26133214 -85.3125 54.375 C-84.79494141 53.92382812 -84.27738281 53.47265625 -83.74414062 53.0078125 C-82.17909025 51.65130558 -80.59059481 50.32638772 -79 49 C-78.45134277 48.52208008 -77.90268555 48.04416016 -77.33740234 47.55175781 C-73.22451179 44 -73.22451179 44 -71 44 C-71 43.34 -71 42.68 -71 42 C-69.52931586 40.69136629 -67.99398682 39.4553144 -66.4375 38.25 C-61.52028163 34.32384889 -56.88930651 30.19200779 -52.3125 25.875 C-51.03128875 24.66922966 -49.75003985 23.46349932 -48.46875 22.2578125 C-47.870625 21.69481445 -47.2725 21.13181641 -46.65625 20.55175781 C-44.56432225 18.59180899 -42.45196262 16.65795361 -40.3125 14.75 C-39.75175781 14.24984375 -39.19101563 13.7496875 -38.61328125 13.234375 C-36.83764579 11.87577741 -35.02595919 10.93573714 -33 10 C-33 9.34 -33 8.68 -33 8 C-29.70620292 3.65858013 -25.87144796 0.55580027 -20.49755859 -0.484375 C-4.41884898 -2.20942449 -4.41884898 -2.20942449 0 0 Z " fill="#475259" transform="translate(294,314)"/>
<path d="M0 0 C2.01367188 1.12646484 2.01367188 1.12646484 3.96875 2.7109375 C4.69803711 3.29125732 5.42732422 3.87157715 6.17871094 4.46948242 C6.94473633 5.09830322 7.71076172 5.72712402 8.5 6.375 C10.11952134 7.67091082 11.73931451 8.96648201 13.359375 10.26171875 C14.54756836 11.22150635 14.54756836 11.22150635 15.75976562 12.20068359 C18.72070802 14.57885986 21.72973428 16.88510532 24.75 19.1875 C29.38935174 22.75259981 34.01549905 26.33387077 38.625 29.9375 C39.21764648 30.39858154 39.81029297 30.85966309 40.42089844 31.3347168 C47.82273536 37.13769673 47.82273536 37.13769673 48.40786743 39.98406982 C48.42231903 40.73794983 48.43677063 41.49182983 48.45166016 42.26855469 C48.4740274 43.12664734 48.49639465 43.98473999 48.5194397 44.86883545 C48.52915298 46.25634003 48.52915298 46.25634003 48.5390625 47.671875 C48.55141937 48.62765442 48.56377625 49.58343384 48.57650757 50.56817627 C48.5960846 52.59226352 48.60730781 54.61644615 48.61083984 56.640625 C48.62488886 59.72559481 48.69216256 62.80647386 48.76171875 65.890625 C48.77412226 67.85935703 48.78333923 69.82811222 48.7890625 71.796875 C48.81578033 72.71378113 48.84249817 73.63068726 48.87002563 74.57537842 C48.81679383 79.63843196 48.24619395 82.31512952 44.59521484 85.95410156 C43.39861483 86.97152765 42.20035423 87.98700584 41 89 C39.8553125 90.4540625 39.8553125 90.4540625 38.6875 91.9375 C37.8521875 92.9584375 37.8521875 92.9584375 37 94 C36.34 94 35.68 94 35 94 C35 94.66 35 95.32 35 96 C33.64453125 97.33203125 33.64453125 97.33203125 31.8125 98.8125 C26.67081937 102.99081563 22.2483835 107.77985341 17.8125 112.6875 C6.86055251 124.70064631 6.86055251 124.70064631 2 129 C1.34 129 0.68 129 0 129 C0 120.42 0 111.84 0 103 C0.66 103 1.32 103 2 103 C2 102.34 2 101.68 2 101 C2.66 101 3.32 101 4 101 C4 100.34 4 99.68 4 99 C4.66 99 5.32 99 6 99 C6 98.34 6 97.68 6 97 C6.66 97 7.32 97 8 97 C8 96.34 8 95.68 8 95 C9.64453125 93.4140625 9.64453125 93.4140625 11.8125 91.625 C14.06250857 89.76433718 15.90350285 88.13127297 17.63671875 85.7734375 C18.08660156 85.18820313 18.53648437 84.60296875 19 84 C19.66 84 20.32 84 21 84 C21 83.34 21 82.68 21 82 C21.66 82 22.32 82 23 82 C23.495 80.515 23.495 80.515 24 79 C24.66 79 25.32 79 26 79 C26 78.34 26 77.68 26 77 C26.66 77 27.32 77 28 77 C28 76.34 28 75.68 28 75 C28.66 75 29.32 75 30 75 C31.67005997 58.18112402 31.67005997 58.18112402 26.4609375 43.0078125 C23.84209786 40.58485752 20.91844927 38.75586082 17.80175781 37.03710938 C14.83086937 35.327037 12.25506103 33.1814578 9.5625 31.0625 C7.720472 29.69186721 5.86655659 28.33703699 4 27 C2.96488281 26.24074219 1.92976563 25.48148438 0.86328125 24.69921875 C-1.9538255 22.58554676 -1.9538255 22.58554676 -5.375 23.75 C-6.24125 24.1625 -7.1075 24.575 -8 25 C-8 25.66 -8 26.32 -8 27 C-9.8359375 28.4453125 -9.8359375 28.4453125 -12.375 30.125 C-17.03541497 33.27821694 -21.37165167 36.67962099 -25.67578125 40.30078125 C-28.10038093 42.07338774 -30.10115405 43.20727352 -33 44 C-36.3125 42.25 -36.3125 42.25 -39 40 C-39 39.34 -39 38.68 -39 38 C-39.8971875 37.566875 -39.8971875 37.566875 -40.8125 37.125 C-43 36 -43 36 -46 34 C-46 33.01 -46 32.02 -46 31 C-44.14117866 29.34196787 -42.32117802 27.89352135 -40.3125 26.4375 C-39.1233737 25.5525188 -37.9345816 24.66708841 -36.74609375 23.78125 C-35.82159424 23.09869141 -35.82159424 23.09869141 -34.87841797 22.40234375 C-33.01480821 21.01105515 -31.17803258 19.59090934 -29.34765625 18.15625 C-28.7652417 17.70064697 -28.18282715 17.24504395 -27.58276367 16.77563477 C-26.46276268 15.89804714 -25.34437534 15.01839539 -24.2277832 14.13647461 C-21.80902883 12.25708606 -19.93444138 10.97814713 -17 10 C-17 9.34 -17 8.68 -17 8 C-15.13671875 6.5625 -15.13671875 6.5625 -12.6875 5 C-11.88699219 4.484375 -11.08648437 3.96875 -10.26171875 3.4375 C-9.51535156 2.963125 -8.76898438 2.48875 -8 2 C-4.73994695 -0.1733687 -3.77674335 -0.43428227 0 0 Z " fill="#475259" transform="translate(324,102)"/>
<path d="M0 0 C3.57007519 2.41150453 6.92637419 4.97584905 10 8 C10 8.66 10 9.32 10 10 C10.69480469 10.2371875 11.38960938 10.474375 12.10546875 10.71875 C15.52198185 12.2310527 18.35756671 14.25238367 21.3125 16.5 C21.86228516 16.90347656 22.41207031 17.30695313 22.97851562 17.72265625 C24.36007451 18.76268691 25.68556298 19.87633454 27 21 C27 21.66 27 22.32 27 23 C27.70769531 23.2371875 28.41539062 23.474375 29.14453125 23.71875 C32.48863366 25.21925012 34.88429812 27.14423962 37.6875 29.5 C38.64011719 30.2940625 39.59273438 31.088125 40.57421875 31.90625 C43 34 43 34 45 36 C44.97725111 40.07205138 44.3274307 41.65197618 41.515625 44.640625 C40.4406555 45.52713561 39.35112247 46.396191 38.25 47.25 C37.38677124 47.94464355 37.38677124 47.94464355 36.50610352 48.65332031 C35.29574074 49.62239893 34.0795323 50.58421657 32.85791016 51.5390625 C31.0121752 52.99042623 29.19817874 54.47492535 27.38671875 55.96875 C26.23811068 56.89723485 25.08840942 57.82436934 23.9375 58.75 C23.4022168 59.1924707 22.86693359 59.63494141 22.31542969 60.09082031 C18.62547769 62.98421124 18.62547769 62.98421124 15.98828125 63.05078125 C13.09196388 61.52011451 10.74933296 59.55003143 8.25 57.4375 C7.26515625 56.61121094 6.2803125 55.78492188 5.265625 54.93359375 C4.14414062 53.97646484 4.14414062 53.97646484 3 53 C4.59473962 48.53472907 8.06903334 46.14492157 11.625 43.25 C12.23601562 42.74339844 12.84703125 42.23679688 13.4765625 41.71484375 C14.97929053 40.4703971 16.48897467 39.23435872 18 38 C17.4946875 37.66226563 16.989375 37.32453125 16.46875 36.9765625 C15.49421875 36.30753906 15.49421875 36.30753906 14.5 35.625 C13.8503125 35.18414062 13.200625 34.74328125 12.53125 34.2890625 C12.0259375 33.86367187 11.520625 33.43828125 11 33 C11 32.34 11 31.68 11 31 C8.525 30.01 8.525 30.01 6 29 C6 28.34 6 27.68 6 27 C5.443125 26.7525 4.88625 26.505 4.3125 26.25 C1.60028873 24.78393985 -0.63587365 22.97010529 -3 21 C-7.62192061 22.46904912 -10.80830913 25.1501769 -14.375 28.3125 C-18.77281084 32.12973765 -23.16498 35.73917256 -28 39 C-19.88503386 47.18742119 -11.4103086 54.58565045 -2.23828125 61.53515625 C0.98367429 63.97762209 4.15879444 66.46974843 7.3125 69 C8.21613281 69.721875 9.11976563 70.44375 10.05078125 71.1875 C11.01564453 72.0846875 11.01564453 72.0846875 12 73 C12 73.66 12 74.32 12 75 C-13.84261763 76.66846168 -13.84261763 76.66846168 -20.6875 70.8125 C-22.15509881 69.2358229 -23.59638393 67.63389683 -25 66 C-26.36402183 64.97698363 -27.75691022 63.99014806 -29.1875 63.0625 C-30.115625 62.381875 -31.04375 61.70125 -32 61 C-32 60.34 -32 59.68 -32 59 C-32.53109375 58.7628125 -33.0621875 58.525625 -33.609375 58.28125 C-36.69742595 56.62621616 -39.4528472 54.59451872 -42.25 52.5 C-42.80429688 52.09652344 -43.35859375 51.69304687 -43.9296875 51.27734375 C-45.32569165 50.23549829 -46.66802392 49.12254588 -48 48 C-48 47.34 -48 46.68 -48 46 C-48.928125 45.566875 -48.928125 45.566875 -49.875 45.125 C-52 44 -52 44 -54 42 C-54.52734375 38.7265625 -54.52734375 38.7265625 -54 35 C-51.86320568 32.72946164 -50.05827493 31.15495173 -47.5625 29.375 C-46.56597412 28.62283203 -46.56597412 28.62283203 -45.54931641 27.85546875 C-44.12474964 26.78232383 -42.69315187 25.71846119 -41.25537109 24.66308594 C-38.1734574 22.39051654 -35.14332223 20.05297397 -32.10913086 17.71728516 C-29.33431173 15.58439501 -26.5462911 13.46916458 -23.75683594 11.35546875 C-22.18887172 10.14572204 -20.65794104 8.88832173 -19.1328125 7.625 C-17 6 -17 6 -15 6 C-15 5.34 -15 4.68 -15 4 C-10.29136938 -0.14604098 -6.12594366 -2.21801408 0 0 Z " fill="#48535A" transform="translate(255,57)"/>
<path d="M0 0 C3.40219909 1.62840299 6.16821057 3.48285384 9 6 C9 6.66 9 7.32 9 8 C9.59296875 8.26296875 10.1859375 8.5259375 10.796875 8.796875 C14.39711126 10.76296147 16.7789277 13.58241455 19 17 C19.79135199 20.87762473 19.34747832 22.39485057 17.3828125 25.81640625 C14.67788404 29.43036804 11.73951152 32.05271376 8.25 34.875 C7.64800781 35.37257812 7.04601562 35.87015625 6.42578125 36.3828125 C4.9563684 37.59566121 3.47899311 38.79885242 2 40 C-1.21043882 38.61811547 -3.04936365 37.07578097 -5.25 34.375 C-5.77078125 33.74335938 -6.2915625 33.11171875 -6.828125 32.4609375 C-7.21484375 31.97882813 -7.6015625 31.49671875 -8 31 C-7.13375 30.22076172 -7.13375 30.22076172 -6.25 29.42578125 C-5.5075 28.72839844 -4.765 28.03101563 -4 27.3125 C-3.2575 26.62800781 -2.515 25.94351563 -1.75 25.23828125 C0.18819514 23.12448497 0.18819514 23.12448497 0.4375 20.4296875 C-0.08140682 17.54790139 -0.81177477 16.7018704 -3 14.8125 C-4.03039805 13.90851653 -5.03793079 12.97638572 -6 12 C-6 11.34 -6 10.68 -6 10 C-6.66 10 -7.32 10 -8 10 C-8 7 -8 7 -6.25 5.17578125 C-5.5075 4.56089844 -4.765 3.94601563 -4 3.3125 C-3.2575 2.68988281 -2.515 2.06726563 -1.75 1.42578125 C-1.1725 0.95527344 -0.595 0.48476562 0 0 Z " fill="#4C555C" transform="translate(321,148)"/>
<path d="M0 0 C3.21043882 1.38188453 5.04936365 2.92421903 7.25 5.625 C7.77078125 6.25664062 8.2915625 6.88828125 8.828125 7.5390625 C9.40820312 8.26222656 9.40820312 8.26222656 10 9 C9.43410156 9.51949219 8.86820313 10.03898438 8.28515625 10.57421875 C7.55167969 11.27160156 6.81820312 11.96898437 6.0625 12.6875 C5.33160156 13.37199219 4.60070312 14.05648437 3.84765625 14.76171875 C1.77146504 17.27685102 1.13746735 18.7536556 1 22 C3.25 24.75 3.25 24.75 6 27 C6.66 27.66 7.32 28.32 8 29 C7.6677642 32.26920029 6.42613229 33.98321297 4.125 36.25 C3.35542969 37.03117187 3.35542969 37.03117187 2.5703125 37.828125 C1 39 1 39 -2 39 C-2 38.34 -2 37.68 -2 37 C-2.721875 36.773125 -3.44375 36.54625 -4.1875 36.3125 C-7.58568303 34.72668125 -9.45230999 32.73876676 -12 30 C-12.9075 29.21625 -13.815 28.4325 -14.75 27.625 C-17.59789679 24.30245375 -18 22.35108677 -18 18 C-16.5625 14.5625 -16.5625 14.5625 -15 12 C-14.34 12 -13.68 12 -13 12 C-12.67 11.01 -12.34 10.02 -12 9 C-10.29296875 7.5 -10.29296875 7.5 -8.1875 6 C-7.50042969 5.505 -6.81335938 5.01 -6.10546875 4.5 C-5.41066406 4.005 -4.71585938 3.51 -4 3 C-2.66417912 2.00332535 -1.33009828 1.00429893 0 0 Z " fill="#495259" transform="translate(179,148)"/>
<path d="M0 0 C2.28717986 3.43076979 2.12745817 4.34451609 1.875 8.3125 C1.80681747 13.50119018 2.40670047 16.04737051 6 20 C8.59459013 22.42623886 11.25388363 24.74711812 14 27 C13.04367001 28.29315061 12.08486149 29.58446853 11.125 30.875 C10.59132812 31.59429687 10.05765625 32.31359375 9.5078125 33.0546875 C8 35 8 35 6 37 C1.98087546 36.76202552 -0.52524796 34.18416689 -3.5 31.6875 C-4.4384375 30.90761719 -5.376875 30.12773437 -6.34375 29.32421875 C-13.74638923 22.84690942 -13.74638923 22.84690942 -14.14453125 17.00390625 C-13.65827955 10.2620922 -6.71610241 5.84676021 -2.046875 1.7578125 C-1.03367188 0.88769531 -1.03367188 0.88769531 0 0 Z " fill="#455158" transform="translate(175,298)"/>
<path d="M0 0 C4.3471959 1.41518428 6.9942809 3.50488837 10.25 6.6875 C11.55710937 7.93080078 11.55710937 7.93080078 12.890625 9.19921875 C15.45205655 12.60023064 15.96606876 14.76344198 16 19 C14.91796875 21.15234375 14.91796875 21.15234375 13.1875 22.9375 C12.55070312 23.59621094 11.91390625 24.25492187 11.2578125 24.93359375 C7.3458501 28.5139192 3.22752663 31.80171024 -1 35 C-5.32640329 33.05450816 -7.2875462 30.874934 -10 27 C-10.1875 24.9375 -10.1875 24.9375 -9 23 C-7.03814584 21.28859531 -5.03697617 19.62126675 -3 18 C-0.59880941 14.39821412 -0.56228678 11.49133631 -0.375 7.3125 C-0.31699219 6.2596582 -0.31699219 6.2596582 -0.2578125 5.18554688 C-0.1637666 3.45745345 -0.0808032 1.72876325 0 0 Z " fill="#50595F" transform="translate(324,300)"/>
<path d="M0 0 C0.99 0.99 1.98 1.98 3 3 C2.14409924 5.87893893 1.40136148 7.64873416 -0.8792572 9.6446991 C-5.61483682 11.70130412 -10.13514233 11.40882089 -15.24438477 11.37231445 C-16.94759384 11.37779045 -16.94759384 11.37779045 -18.68521118 11.38337708 C-22.43742846 11.39148125 -26.18921376 11.37787383 -29.94140625 11.36328125 C-32.54784647 11.36276267 -35.15428709 11.3632803 -37.76072693 11.36479187 C-43.22229163 11.36567393 -48.68373199 11.35461194 -54.14526367 11.33618164 C-60.4568013 11.31500471 -66.76815697 11.31150689 -73.07972294 11.3177436 C-79.15647233 11.32344048 -85.23314747 11.31768362 -91.30988884 11.30657005 C-93.89391764 11.30271629 -96.47795192 11.30157056 -99.06198311 11.3031559 C-102.66976537 11.30352598 -106.27726925 11.29092228 -109.88500977 11.2746582 C-110.95680984 11.27713562 -112.02860992 11.27961304 -113.13288879 11.28216553 C-114.60698212 11.27153831 -114.60698212 11.27153831 -116.1108551 11.26069641 C-116.96347207 11.25864354 -117.81608904 11.25659067 -118.69454288 11.25447559 C-121.19668279 10.97829022 -122.83654502 10.2560015 -125 9 C-125 8.34 -125 7.68 -125 7 C-125.66 7 -126.32 7 -127 7 C-127.33 5.68 -127.66 4.36 -128 3 C-125 4 -125 4 -123.01350403 6.02838135 C-118.43964864 9.0208773 -114.13955906 8.57115437 -108.78393555 8.54589844 C-107.65179123 8.55623611 -106.51964691 8.56657379 -105.35319519 8.57722473 C-101.61422538 8.60670244 -97.87579574 8.60815302 -94.13671875 8.609375 C-91.54310572 8.6243532 -88.94950223 8.64107957 -86.35591125 8.65948486 C-80.22909343 8.69874239 -74.10244593 8.72037872 -67.97552377 8.73345876 C-60.9984199 8.74933856 -54.02149678 8.78775821 -47.04449785 8.82805204 C-32.69639747 8.91041177 -18.34828906 8.96452835 -4 9 C-4 8.01 -4 7.02 -4 6 C-2.68 5.67 -1.36 5.34 0 5 C0 3.35 0 1.7 0 0 Z " fill="#37A4B3" transform="translate(313,294)"/>
<path d="M0 0 C2.475 0.99 2.475 0.99 5 2 C4.67 2.66 4.34 3.32 4 4 C4.495 4.45375 4.99 4.9075 5.5 5.375 C7 7 7 7 7 9 C7.66 9.33 8.32 9.66 9 10 C8.34 10.66 7.68 11.32 7 12 C6.5875 11.60167969 6.175 11.20335937 5.75 10.79296875 C-2.43081041 3.28780563 -10.13433281 2.29577927 -20.921875 2.6484375 C-29.90367139 3.21851499 -35.81723332 7.81723332 -42 14 C-42 13.01 -42 12.02 -42 11 C-42.99 10.67 -43.98 10.34 -45 10 C-44.38125 9.938125 -43.7625 9.87625 -43.125 9.8125 C-42.073125 9.4103125 -42.073125 9.4103125 -41 9 C-40.566875 7.7934375 -40.566875 7.7934375 -40.125 6.5625 C-39 4 -39 4 -36.25 2.75 C-31.01526397 1.54198399 -26.14018649 0.87815594 -20.76171875 0.9375 C-19.61251953 0.94523438 -18.46332031 0.95296875 -17.27929688 0.9609375 C-16.09400391 0.97382813 -14.90871094 0.98671875 -13.6875 1 C-11.31645048 1.02537239 -8.94534971 1.04645174 -6.57421875 1.0625 C-5.00546997 1.07990234 -5.00546997 1.07990234 -3.4050293 1.09765625 C-1.04816079 1.27410617 -1.04816079 1.27410617 0 0 Z " fill="#48ADB7" transform="translate(266,153)"/>
<path d="M0 0 C1.32 0.66 2.64 1.32 4 2 C2.64916665 8.49842644 0.92104843 14.7517089 -1.125 21.0625 C-2.07375 24.011875 -3.0225 26.96125 -4 30 C5.24 30 14.48 30 24 30 C24 28.02 24 26.04 24 24 C24.66 24 25.32 24 26 24 C26 26.64 26 29.28 26 32 C15.77 32 5.54 32 -5 32 C-5 24.24737752 -4.92696442 20.51019889 -2 14 C0.22732775 8.90896515 1.54101264 5.60368233 0 0 Z " fill="#57B1B9" transform="translate(240,252)"/>
<path d="M0 0 C0.495 1.485 0.495 1.485 1 3 C0.17274414 2.99476318 -0.65451172 2.98952637 -1.50683594 2.98413086 C-5.25454957 2.96334531 -9.00225106 2.95033476 -12.75 2.9375 C-14.70292969 2.92493164 -14.70292969 2.92493164 -16.6953125 2.91210938 C-17.94570312 2.90888672 -19.19609375 2.90566406 -20.484375 2.90234375 C-21.63647461 2.89710693 -22.78857422 2.89187012 -23.97558594 2.88647461 C-26.51926964 2.98195515 -28.58398313 3.25082739 -31 4 C-31 4.99 -31 5.98 -31 7 C-32.65 6.67 -34.3 6.34 -36 6 C-36 6.66 -36 7.32 -36 8 C-40.95 9.485 -40.95 9.485 -46 11 C-34.97457399 -2.30654864 -15.66944411 -1.98977068 0 0 Z " fill="#5CB7C4" transform="translate(263,139)"/>
<path d="M0 0 C1.32 0.99 2.64 1.98 4 3 C3.34 4.32 2.68 5.64 2 7 C0.35 7 -1.3 7 -3 7 C-3 7.66 -3 8.32 -3 9 C-2.01 9.33 -1.02 9.66 0 10 C0 10.33 0 10.66 0 11 C0.66 11 1.32 11 2 11 C2 10.34 2 9.68 2 9 C3.32 9 4.64 9 6 9 C5.25 11.875 5.25 11.875 4 15 C2.02 15.99 2.02 15.99 0 17 C-2.64 14.36 -5.28 11.72 -8 9 C-2.25 2.25 -2.25 2.25 0 0 Z " fill="#505860" transform="translate(321,171)"/>
<path d="M0 0 C1.010625 0.0825 2.02125 0.165 3.0625 0.25 C3.7225 1.24 4.3825 2.23 5.0625 3.25 C4.7325 3.91 4.4025 4.57 4.0625 5.25 C1.74093403 5.65729228 -0.5943787 5.99438677 -2.9375 6.25 C-2.9375 6.91 -2.9375 7.57 -2.9375 8.25 C-3.51628906 8.02570313 -4.09507812 7.80140625 -4.69140625 7.5703125 C-6.99144578 7.00142985 -6.99144578 7.00142985 -8.90234375 8.4296875 C-9.55332031 8.98914063 -10.20429688 9.54859375 -10.875 10.125 C-13.87168354 12.54475194 -15.97315437 14.0022284 -19.9375 14.25 C-15.87619687 9.76856206 -11.18506237 6.42072618 -6.265625 2.921875 C-2.49220336 0.21210241 -2.49220336 0.21210241 0 0 Z " fill="#51585D" transform="translate(180.9375,101.75)"/>
<path d="M0 0 C0.99 0.33 1.98 0.66 3 1 C2.4375 3.875 2.4375 3.875 1 7 C-2.625 8.375 -2.625 8.375 -6 9 C-6 9.99 -6 10.98 -6 12 C-7.75 13.75 -7.75 13.75 -10 15 C-11.32 14.67 -12.64 14.34 -14 14 C-9.38 9.38 -4.76 4.76 0 0 Z " fill="#595F65" transform="translate(213,325)"/>
<path d="M0 0 C1.29315061 0.95632999 2.58446853 1.91513851 3.875 2.875 C4.59429687 3.40867187 5.31359375 3.94234375 6.0546875 4.4921875 C8 6 8 6 10 8 C9.625 11.125 9.625 11.125 9 14 C5.98968256 14.93423645 5.13349732 15.04449911 2 14 C2.33 12.68 2.66 11.36 3 10 C3.66 10 4.32 10 5 10 C5 9.01 5 8.02 5 7 C3.02 6.34 1.04 5.68 -1 5 C-0.67 3.35 -0.34 1.7 0 0 Z " fill="#51575D" transform="translate(290,85)"/>
<path d="M0 0 C0.33 0.99 0.66 1.98 1 3 C-0.375 4.5 -0.375 4.5 -2 6 C-2.66 6 -3.32 6 -4 6 C-3.67 6.99 -3.34 7.98 -3 9 C-3.99 9.495 -3.99 9.495 -5 10 C-5.65772428 13.02934491 -5.65772428 13.02934491 -6 16 C-9 14.1875 -9 14.1875 -12 12 C-12 11.01 -12 10.02 -12 9 C-10.03123367 7.30369687 -8.11326838 5.80463882 -6 4.3125 C-5.42765625 3.89677734 -4.8553125 3.48105469 -4.265625 3.05273438 C-2.85003468 2.02643139 -1.42580369 1.01206601 0 0 Z " fill="#5A6064" transform="translate(290,124)"/>
<path d="M0 0 C-0.33 0.66 -0.66 1.32 -1 2 C-0.505 2.45375 -0.01 2.9075 0.5 3.375 C2 5 2 5 2 7 C2.66 7.33 3.32 7.66 4 8 C3.34 8.66 2.68 9.32 2 10 C1.59910156 9.61328125 1.19820313 9.2265625 0.78515625 8.828125 C-3.75016436 4.67331881 -8.27749121 2.20595577 -14 0 C-13.08541016 -0.22623047 -13.08541016 -0.22623047 -12.15234375 -0.45703125 C-10.61648806 -0.84447942 -9.08699379 -1.25751457 -7.5625 -1.6875 C-4.47317461 -2.064247 -2.76513739 -1.34306673 0 0 Z " fill="#55B6BF" transform="translate(271,155)"/>
<path d="M0 0 C1.32 0.33 2.64 0.66 4 1 C3.34 2.32 2.68 3.64 2 5 C1.34 5 0.68 5 0 5 C0.350625 5.598125 0.70125 6.19625 1.0625 6.8125 C2 9 2 9 1 12 C-0.70884005 10.37660195 -2.37446717 8.70680947 -4 7 C-4 6.34 -4 5.68 -4 5 C-4.66 5 -5.32 5 -6 5 C-6 4.01 -6 3.02 -6 2 C-3 1 -3 1 0 2 C0 1.34 0 0.68 0 0 Z " fill="#5A6167" transform="translate(319,153)"/>
<path d="M0 0 C0 1.32 0 2.64 0 4 C-0.99 4.66 -1.98 5.32 -3 6 C-3 6.99 -3 7.98 -3 9 C-4.11375 8.9690625 -4.11375 8.9690625 -5.25 8.9375 C-7.70462279 8.99328688 -9.66109261 9.3069904 -12 10 C-12 9.01 -12 8.02 -12 7 C-10.13671875 5.17578125 -10.13671875 5.17578125 -7.6875 3.3125 C-6.48673828 2.37857422 -6.48673828 2.37857422 -5.26171875 1.42578125 C-3 0 -3 0 0 0 Z " fill="#53595F" transform="translate(224,76)"/>
<path d="M0 0 C0.66 1.32 1.32 2.64 2 4 C1.01 5.485 1.01 5.485 0 7 C0 6.34 0 5.68 0 5 C-0.99 5 -1.98 5 -3 5 C-3.12375 5.61875 -3.2475 6.2375 -3.375 6.875 C-4 9 -4 9 -6 11 C-6.66 10.67 -7.32 10.34 -8 10 C-8 10.99 -8 11.98 -8 13 C-9.65 13.33 -11.3 13.66 -13 14 C-8.88380164 9.08064098 -4.59589638 4.47352044 0 0 Z " fill="#5E656A" transform="translate(141,243)"/>
<path d="M0 0 C1.32 0 2.64 0 4 0 C2.52307692 5.66153846 2.52307692 5.66153846 -0.125 7.375 C-1.053125 7.684375 -1.053125 7.684375 -2 8 C-3.65 6.02 -5.3 4.04 -7 2 C-4.69 2 -2.38 2 0 2 C0 1.34 0 0.68 0 0 Z " fill="#5A636C" transform="translate(323,180)"/>
<path d="M0 0 C0.33 0 0.66 0 1 0 C1.33 9.9 1.66 19.8 2 30 C0.02 30.66 -1.96 31.32 -4 32 C-4 31.34 -4 30.68 -4 30 C-3.34 30 -2.68 30 -2 30 C-2 29.34 -2 28.68 -2 28 C-1.34 28 -0.68 28 0 28 C0 18.76 0 9.52 0 0 Z " fill="#5A5F63" transform="translate(354,149)"/>
<path d="M0 0 C3 1 3 1 5.13671875 3.015625 C9.02831429 5.71266529 12.18223891 5.66461379 16.8125 5.75 C17.60076172 5.77964844 18.38902344 5.80929687 19.20117188 5.83984375 C21.13357446 5.91011293 23.06679015 5.95737134 25 6 C25 6.33 25 6.66 25 7 C22.0837882 7.22201613 19.16792256 7.42808498 16.25 7.625 C15.425 7.68945312 14.6 7.75390625 13.75 7.8203125 C12.95078125 7.871875 12.1515625 7.9234375 11.328125 7.9765625 C10.22839355 8.05511475 10.22839355 8.05511475 9.10644531 8.13525391 C6.65224559 7.97767085 5.11146787 7.22264839 3 6 C3 5.34 3 4.68 3 4 C2.34 4 1.68 4 1 4 C0.67 2.68 0.34 1.36 0 0 Z " fill="#57B9C4" transform="translate(185,297)"/>
<path d="M0 0 C3.875 1.75 3.875 1.75 5 4 C3.5625 6.625 3.5625 6.625 2 9 C1.67 8.01 1.34 7.02 1 6 C0.01 5.67 -0.98 5.34 -2 5 C-2 5.66 -2 6.32 -2 7 C-2.99 7 -3.98 7 -5 7 C-3.70700306 4.11562221 -2.34058637 2.12780579 0 0 Z " fill="#4F565C" transform="translate(321,148)"/>
<path d="M0 0 C0.66 0 1.32 0 2 0 C0.33248852 3.94139078 -2.22710649 6.7892812 -5 10 C-3.68 11.65 -2.36 13.3 -1 15 C-2.32 15 -3.64 15 -5 15 C-5 14.34 -5 13.68 -5 13 C-5.66 13 -6.32 13 -7 13 C-7 11.02 -7 9.04 -7 7 C-5.68 6.34 -4.36 5.68 -3 5 C-3 4.34 -3 3.68 -3 3 C-2.34 3 -1.68 3 -1 3 C-0.67 2.01 -0.34 1.02 0 0 Z " fill="#7A7D81" transform="translate(342,254)"/>
<path d="M0 0 C0.33 0.66 0.66 1.32 1 2 C1.66 2.33 2.32 2.66 3 3 C-0.625 6 -0.625 6 -4 6 C-4.33 7.32 -4.66 8.64 -5 10 C-5.99 10 -6.98 10 -8 10 C-8.33 10.99 -8.66 11.98 -9 13 C-9.66 13 -10.32 13 -11 13 C-9.46356148 9.31930113 -7.21849055 7.01224796 -4.375 4.25 C-3.55773437 3.45078125 -2.74046875 2.6515625 -1.8984375 1.828125 C-0.95871094 0.92320312 -0.95871094 0.92320312 0 0 Z " fill="#60656B" transform="translate(164,220)"/>
<path d="M0 0 C1.11375 0.598125 2.2275 1.19625 3.375 1.8125 C4.00148438 2.14894531 4.62796875 2.48539063 5.2734375 2.83203125 C7 4 7 4 9 7 C6.36 7.66 3.72 8.32 1 9 C0.29925156 5.846632 0 3.27275026 0 0 Z " fill="#575E63" transform="translate(355,127)"/>
<path d="M0 0 C4.75 0.875 4.75 0.875 7 2 C7 2.66 7 3.32 7 4 C-0.26 4 -7.52 4 -15 4 C-15 3.67 -15 3.34 -15 3 C-10.38 3 -5.76 3 -1 3 C-0.67 2.01 -0.34 1.02 0 0 Z " fill="#42474A" transform="translate(259,127)"/>
<path d="M0 0 C0.99 0.99 1.98 1.98 3 3 C2.05208357 6.18844618 1.30234667 7.75485405 -1.3125 9.875 C-4.41167349 11.17232844 -5.84354695 10.9920281 -9 10 C-9 9.67 -9 9.34 -9 9 C-7.35 9 -5.7 9 -4 9 C-4 8.01 -4 7.02 -4 6 C-2.68 5.67 -1.36 5.34 0 5 C0 3.35 0 1.7 0 0 Z " fill="#58BAC1" transform="translate(313,294)"/>
<path d="M0 0 C2 3 2 3 1.625 5.1875 C1.41875 5.785625 1.2125 6.38375 1 7 C0.34 6.67 -0.32 6.34 -1 6 C-1.928125 6.680625 -2.85625 7.36125 -3.8125 8.0625 C-4.864375 8.701875 -5.91625 9.34125 -7 10 C-7.99 9.67 -8.98 9.34 -10 9 C-6.7 6.03 -3.4 3.06 0 0 Z " fill="#626569" transform="translate(175,298)"/>
<path d="M0 0 C-0.33 0.99 -0.66 1.98 -1 3 C-0.34 3.33 0.32 3.66 1 4 C-2 6 -2 6 -3.9375 5.875 C-6.58139311 4.75334838 -8.09095436 3.11358624 -10 1 C-6.59437148 0.22157062 -3.49234244 -0.09978121 0 0 Z " fill="#535B60" transform="translate(275,114)"/>
<path d="M0 0 C-1.49041773 3.79379058 -3.69062512 5.68343758 -7 8 C-7.66 8 -8.32 8 -9 8 C-8.01 9.65 -7.02 11.3 -6 13 C-6.99 13 -7.98 13 -9 13 C-9 12.34 -9 11.68 -9 11 C-9.66 10.67 -10.32 10.34 -11 10 C-10.67 8.68 -10.34 7.36 -10 6 C-9.01 6 -8.02 6 -7 6 C-7 5.01 -7 4.02 -7 3 C-2.77777778 0 -2.77777778 0 0 0 Z " fill="#5C6065" transform="translate(235,367)"/>
<path d="M0 0 C0.33 0.66 0.66 1.32 1 2 C0.34 2 -0.32 2 -1 2 C-0.71848913 3.31471568 -0.42446661 4.62675767 -0.125 5.9375 C0.03742188 6.66839844 0.19984375 7.39929688 0.3671875 8.15234375 C0.82961523 10.20700294 0.82961523 10.20700294 3 11 C2.67 13.31 2.34 15.62 2 18 C-0.27467773 15.72532227 -0.75132436 14.23349588 -1.6875 11.1875 C-1.95949219 10.33542969 -2.23148437 9.48335938 -2.51171875 8.60546875 C-3.05550925 5.70380266 -2.88632706 3.80588622 -2 1 C-1.34 0.67 -0.68 0.34 0 0 Z " fill="#54ACB7" transform="translate(260,252)"/>
<path d="M0 0 C3.03852705 1.40976705 5.5939595 3.08870228 8.25 5.125 C8.95640625 5.66382812 9.6628125 6.20265625 10.390625 6.7578125 C10.92171875 7.16773437 11.4528125 7.57765625 12 8 C10.02 8.99 10.02 8.99 8 10 C7.4225 9.21625 6.845 8.4325 6.25 7.625 C4.17102363 5.19952756 2.90959667 4.14305583 0 3 C0 2.01 0 1.02 0 0 Z " fill="#5B6166" transform="translate(243,112)"/>
<path d="M0 0 C-2.35438733 1.42944945 -3.48032433 2.08661261 -6.25 1.625 C-6.8275 1.41875 -7.405 1.2125 -8 1 C-8.66 2.65 -9.32 4.3 -10 6 C-11.32 5.67 -12.64 5.34 -14 5 C-14 5.66 -14 6.32 -14 7 C-14.99 6.67 -15.98 6.34 -17 6 C-16.34 6 -15.68 6 -15 6 C-15 5.34 -15 4.68 -15 4 C-10.06520475 -0.34518335 -6.31766363 -1.7110339 0 0 Z " fill="#6D7377" transform="translate(255,57)"/>
<path d="M0 0 C1.67542976 0.28604898 3.34385343 0.61781233 5 1 C3.70700306 3.88437779 2.34058637 5.87219421 0 8 C-2 5 -2 5 -1.6875 2.875 C-1 1 -1 1 0 0 Z " fill="#5D6368" transform="translate(316,322)"/>
<path d="M0 0 C4.95 0 9.9 0 15 0 C14.34 1.32 13.68 2.64 13 4 C12.01 4 11.02 4 10 4 C10 3.34 10 2.68 10 2 C7.03 2 4.06 2 1 2 C0.67 1.34 0.34 0.68 0 0 Z " fill="#33343A" transform="translate(239,314)"/>
<path d="M0 0 C0.5775 0.61875 1.155 1.2375 1.75 1.875 C3.80249821 3.81347053 5.43366582 4.90014249 8 6 C8 7.65 8 9.3 8 11 C4.19364503 7.79239749 0.45436433 4.59253891 -3 1 C-2.01 0.67 -1.02 0.34 0 0 Z " fill="#5F656B" transform="translate(118,214)"/>
<path d="M0 0 C0.99 0.33 1.98 0.66 3 1 C2.01 2.1446875 2.01 2.1446875 1 3.3125 C-1.29850538 5.84277939 -1.29850538 5.84277939 -1 9 C-2.32 8.67 -3.64 8.34 -5 8 C-5 4 -5 4 -2.6875 1.6875 C-1.800625 1.130625 -0.91375 0.57375 0 0 Z " fill="#5B6064" transform="translate(264,103)"/>
<path d="M0 0 C1.32 0.66 2.64 1.32 4 2 C3.01 2.33 2.02 2.66 1 3 C1 3.66 1 4.32 1 5 C-4.29411765 9 -4.29411765 9 -8 9 C-6.85459775 7.68712379 -5.70866567 6.37470979 -4.5625 5.0625 C-3.92441406 4.33160156 -3.28632813 3.60070312 -2.62890625 2.84765625 C-1.77458541 1.87860647 -0.91348825 0.91348825 0 0 Z " fill="#6E7478" transform="translate(393,250)"/>
<path d="M0 0 C0.66 0.66 1.32 1.32 2 2 C-6.07744875 9.85193622 -6.07744875 9.85193622 -12 10 C-8.29909479 6.0747975 -4.45040344 3.05419844 0 0 Z " fill="#5F656A" transform="translate(173,106)"/>
<path d="M0 0 C3.65316671 1.24976756 4.78065836 1.67098753 7 5 C6.01 5.66 5.02 6.32 4 7 C2.02 6.01 0.04 5.02 -2 4 C-1.34 2.68 -0.68 1.36 0 0 Z " fill="#555B60" transform="translate(182,321)"/>
<path d="M0 0 C1.32 0.99 2.64 1.98 4 3 C2.60667426 6.36720387 1.0210714 7.9859524 -2 10 C-2 7.69 -2 5.38 -2 3 C-1.34 3 -0.68 3 0 3 C0 2.01 0 1.02 0 0 Z " fill="#5D6367" transform="translate(144,218)"/>
<path d="M0 0 C1.25541557 3.76624671 0.37061958 5.37188934 -1 9 C-4 9 -4 9 -8 7 C-5.36 4.69 -2.72 2.38 0 0 Z " fill="#62686D" transform="translate(231,349)"/>
<path d="M0 0 C-1.15173355 2.46800047 -2.04783565 4.04783565 -4 6 C-6.0625 5.8125 -6.0625 5.8125 -8 5 C-8.33 4.01 -8.66 3.02 -9 2 C-2.25 0 -2.25 0 0 0 Z " fill="#63686B" transform="translate(141,228)"/>
<path d="M0 0 C5.875 3.75 5.875 3.75 7 6 C4.69 6.66 2.38 7.32 0 8 C0 7.01 0 6.02 0 5 C-0.66 5 -1.32 5 -2 5 C-1.34 3.35 -0.68 1.7 0 0 Z " fill="#5D666C" transform="translate(255,121)"/>
<path d="M0 0 C1.21236328 0.01353516 1.21236328 0.01353516 2.44921875 0.02734375 C3.37154297 0.04474609 3.37154297 0.04474609 4.3125 0.0625 C1.12706382 3.11520967 -1.56752297 3.49369613 -5.78125 3.87890625 C-7.81979093 4.07524113 -9.72230079 4.4893169 -11.6875 5.0625 C-7.92415649 1.03961556 -5.47975147 -0.07941669 0 0 Z " fill="#5EB6C3" transform="translate(198.6875,199.9375)"/>
<path d="M0 0 C3.86379545 3.00517424 6.90983192 5.45081065 9 10 C8.67 10.66 8.34 11.32 8 12 C7.34 12 6.68 12 6 12 C5.67 11.01 5.34 10.02 5 9 C4.01 9 3.02 9 2 9 C2.226875 8.401875 2.45375 7.80375 2.6875 7.1875 C2.790625 6.465625 2.89375 5.74375 3 5 C1.60411246 3.35405861 1.60411246 3.35405861 0 2 C0 1.34 0 0.68 0 0 Z " fill="#5EB8C0" transform="translate(284,152)"/>
<path d="M0 0 C0 0.99 0 1.98 0 3 C-1.65 3 -3.3 3 -5 3 C-5 3.66 -5 4.32 -5 5 C-6.98 5 -8.96 5 -11 5 C-7.17906575 1.05170128 -5.52310605 -0.1453449 0 0 Z " fill="#595D62" transform="translate(324,102)"/>
<path d="M0 0 C1.65 0.33 3.3 0.66 5 1 C3.4169423 5.2742558 0.49431596 7.26531794 -3 10 C-2.6875 8.0625 -2.6875 8.0625 -2 6 C-1.01 5.67 -0.02 5.34 1 5 C0.67 3.35 0.34 1.7 0 0 Z " fill="#5F666B" transform="translate(269,331)"/>
<path d="M0 0 C0.99 0.33 1.98 0.66 3 1 C2 4 2 4 -1.0625 5.6875 C-2.031875 6.120625 -3.00125 6.55375 -4 7 C-4.66 6.34 -5.32 5.68 -6 5 C-1.60546875 0.99609375 -1.60546875 0.99609375 0 0 Z " fill="#5E6467" transform="translate(265,385)"/>
<path d="M0 0 C0.33 0.66 0.66 1.32 1 2 C1.66 2.33 2.32 2.66 3 3 C0.75 5.5 0.75 5.5 -2 8 C-3.32 8 -4.64 8 -6 8 C-4.55746343 4.63408134 -2.66735273 2.48952921 0 0 Z " fill="#686C70" transform="translate(137,291)"/>
<path d="M0 0 C2.52588702 2.36292656 3.88820837 3.66462511 5 7 C2.66666667 7 0.33333333 7 -2 7 C-1.125 1.125 -1.125 1.125 0 0 Z " fill="#404C54" transform="translate(329,156)"/>
<path d="M0 0 C0.66 0.33 1.32 0.66 2 1 C2.99 1 3.98 1 5 1 C5.66 1.66 6.32 2.32 7 3 C5.75 4.5625 5.75 4.5625 4 6 C1.9375 5.875 1.9375 5.875 0 5 C-0.66 4.01 -1.32 3.02 -2 2 C-1.34 1.34 -0.68 0.68 0 0 Z " fill="#585D62" transform="translate(177,329)"/>
<path d="M0 0 C1.65 0.33 3.3 0.66 5 1 C3 3 3 3 0 4 C-0.99 5.485 -0.99 5.485 -2 7 C-4.625 7.6875 -4.625 7.6875 -7 8 C-5.38405168 5.95880212 -3.7143618 3.95927063 -2 2 C-1.34 2 -0.68 2 0 2 C0 1.34 0 0.68 0 0 Z " fill="#6B6F75" transform="translate(261,322)"/>
<path d="M0 0 C0.33 1.32 0.66 2.64 1 4 C0.01 4.495 0.01 4.495 -1 5 C-1 5.66 -1 6.32 -1 7 C-2.98 7.33 -4.96 7.66 -7 8 C-6.02133662 6.85373678 -5.04205413 5.70800212 -4.0625 4.5625 C-3.51722656 3.92441406 -2.97195312 3.28632813 -2.41015625 2.62890625 C-1.63204305 1.73008851 -0.84063472 0.84063472 0 0 Z " fill="#696E72" transform="translate(157,271)"/>
<path d="M0 0 C1.65 0.33 3.3 0.66 5 1 C5.33 2.32 5.66 3.64 6 5 C5.01 5.495 5.01 5.495 4 6 C1.375 5.0625 1.375 5.0625 -1 4 C-0.67 2.68 -0.34 1.36 0 0 Z M-1 5 C1 6 1 6 1 6 Z " fill="#404E55" transform="translate(138,248)"/>
<path d="M0 0 C0.99 1.32 1.98 2.64 3 4 C2.01 4 1.02 4 0 4 C-2.18777466 5.9375006 -2.18777466 5.9375006 -4 8 C-4.99 7.67 -5.98 7.34 -7 7 C-4.69 4.69 -2.38 2.38 0 0 Z " fill="#5A6367" transform="translate(354,218)"/>
<path d="M0 0 C0.763125 0.20625 1.52625 0.4125 2.3125 0.625 C1.9825 2.605 1.6525 4.585 1.3125 6.625 C-0.9975 4.975 -3.3075 3.325 -5.6875 1.625 C-2.6875 -0.375 -2.6875 -0.375 0 0 Z " fill="#5D6368" transform="translate(150.6875,353.375)"/>
<path d="M0 0 C1.125 3.75 1.125 3.75 0 6 C0.66 6.33 1.32 6.66 2 7 C0.35 7.66 -1.3 8.32 -3 9 C-2.5020163 5.26512223 -2.12508244 3.18762365 0 0 Z " fill="#62676C" transform="translate(164,308)"/>
<path d="M0 0 C0.66 0.33 1.32 0.66 2 1 C1.67 1.33 1.34 1.66 1 2 C1.66 2.66 2.32 3.32 3 4 C1.35 4.33 -0.3 4.66 -2 5 C-2 5.66 -2 6.32 -2 7 C-3.32 6.67 -4.64 6.34 -6 6 C-5.34 5.01 -4.68 4.02 -4 3 C-3.34 3 -2.68 3 -2 3 C-2 2.34 -2 1.68 -2 1 C-1.34 0.67 -0.68 0.34 0 0 Z " fill="#62696D" transform="translate(309,109)"/>
<path d="M0 0 C1.32 0.33 2.64 0.66 4 1 C2.60667426 4.36720387 1.0210714 5.9859524 -2 8 C-1.125 2.25 -1.125 2.25 0 0 Z " fill="#565C61" transform="translate(213,344)"/>
<path d="M0 0 C0.66 0.66 1.32 1.32 2 2 C-2.625 6.875 -2.625 6.875 -6 8 C-5.65120368 4.74456771 -4.97866739 3.98126893 -2.4375 1.75 C-1.633125 1.1725 -0.82875 0.595 0 0 Z " fill="#53595F" transform="translate(252,331)"/>
<path d="M0 0 C2 2 2 2 2.1953125 4.1640625 C2.17210937 4.97617187 2.14890625 5.78828125 2.125 6.625 C2.10695312 7.44226563 2.08890625 8.25953125 2.0703125 9.1015625 C2.03550781 10.04128906 2.03550781 10.04128906 2 11 C1.67 11 1.34 11 1 11 C0.67 9.35 0.34 7.7 0 6 C-0.99 5.67 -1.98 5.34 -3 5 C-2.625 3.0625 -2.625 3.0625 -2 1 C-1.34 0.67 -0.68 0.34 0 0 Z " fill="#3D444B" transform="translate(174,303)"/>
<path d="M0 0 C1.32 0.33 2.64 0.66 4 1 C2.60667426 4.36720387 1.0210714 5.9859524 -2 8 C-2.33 7.01 -2.66 6.02 -3 5 C-1.5625 2.3125 -1.5625 2.3125 0 0 Z " fill="#525B60" transform="translate(149,298)"/>
<path d="M0 0 C3.26008643 3.16952847 6.22237877 6.39937989 9 10 C8.401875 9.690625 7.80375 9.38125 7.1875 9.0625 C4.91043228 7.89790296 4.91043228 7.89790296 2 7 C0 4 0 4 0 0 Z " fill="#595D62" transform="translate(341,269)"/>
<path d="M0 0 C0.66 0.66 1.32 1.32 2 2 C-1.465 4.97 -1.465 4.97 -5 8 C-5.33 7.34 -5.66 6.68 -6 6 C-4.75 3.4375 -4.75 3.4375 -3 1 C-2.01 0.67 -1.02 0.34 0 0 Z " fill="#686E71" transform="translate(166,242)"/>
<path d="M0 0 C0.33 0 0.66 0 1 0 C1.268125 0.928125 1.53625 1.85625 1.8125 2.8125 C2.91148371 5.76240366 3.62418561 7.05615186 6 9 C5.67 9.99 5.34 10.98 5 12 C-0.7326036 5.67943706 -0.7326036 5.67943706 -1 1 C-0.67 0.67 -0.34 0.34 0 0 Z " fill="#7B8086" transform="translate(71,235)"/>
<path d="M0 0 C0.66 0.33 1.32 0.66 2 1 C1.505 1.37125 1.01 1.7425 0.5 2.125 C-1.59755514 4.74694393 -1.21743835 6.73842472 -1 10 C-2.65 9.01 -4.3 8.02 -6 7 C-4.02 4.69 -2.04 2.38 0 0 Z " fill="#686F77" transform="translate(215,363)"/>
<path d="M0 0 C1.9375 0.375 1.9375 0.375 4 1 C4.33 1.66 4.66 2.32 5 3 C3.1875 4.0625 3.1875 4.0625 1 5 C0.01 4.67 -0.98 4.34 -2 4 C-2 4.66 -2 5.32 -2 6 C-2.66 5.67 -3.32 5.34 -4 5 C-3.67 4.34 -3.34 3.68 -3 3 C-2.34 3 -1.68 3 -1 3 C-0.67 2.01 -0.34 1.02 0 0 Z " fill="#64686F" transform="translate(264,353)"/>
<path d="M0 0 C2.31 0 4.62 0 7 0 C6.67 1.98 6.34 3.96 6 6 C3.37812506 4.95125002 2.20628639 4.35068687 0.75 1.875 C0.5025 1.25625 0.255 0.6375 0 0 Z " fill="#62686D" transform="translate(165,322)"/>
<path d="M0 0 C1.65 0.33 3.3 0.66 5 1 C3.84826645 3.46800047 2.95216435 5.04783565 1 7 C1 5.68 1 4.36 1 3 C0.34 3 -0.32 3 -1 3 C-0.67 2.01 -0.34 1.02 0 0 Z " fill="#515A5F" transform="translate(396,266)"/>
<path d="M0 0 C0.33 0.66 0.66 1.32 1 2 C1.66 2 2.32 2 3 2 C3.66 3.65 4.32 5.3 5 7 C4.01 7.33 3.02 7.66 2 8 C0.4375 6.8125 0.4375 6.8125 -1 5 C-0.6875 2.3125 -0.6875 2.3125 0 0 Z " fill="#5F676C" transform="translate(399,225)"/>
<path d="M0 0 C2.75 -0.3125 2.75 -0.3125 6 0 C8.375 2.5 8.375 2.5 10 5 C7.03 4.67 4.06 4.34 1 4 C0.67 2.68 0.34 1.36 0 0 Z " fill="#4E5B61" transform="translate(361,135)"/>
<path d="M0 0 C1.98 0.99 1.98 0.99 4 2 C3.34 4.97 2.68 7.94 2 11 C1.34 11 0.68 11 0 11 C0.29296875 9.01432292 0.5859375 7.02864583 0.87890625 5.04296875 C1.13904799 2.7974658 1.13904799 2.7974658 0 0 Z " fill="#62B3BD" transform="translate(240,252)"/>
<path d="M0 0 C0.99 0.33 1.98 0.66 3 1 C1.55746343 4.36591866 -0.33264727 6.51047079 -3 9 C-3.36923077 3.46153846 -3.36923077 3.46153846 -1.5 1.125 C-1.005 0.75375 -0.51 0.3825 0 0 Z " fill="#545B61" transform="translate(357,236)"/>
<path d="M0 0 C2.475 0.495 2.475 0.495 5 1 C4.67 4.3 4.34 7.6 4 11 C3.34 11 2.68 11 2 11 C2 7.7 2 4.4 2 1 C1.34 0.67 0.68 0.34 0 0 Z " fill="#34A9B4" transform="translate(265,231)"/>
<path d="M0 0 C0.66 0.33 1.32 0.66 2 1 C0.92598892 3.91517292 0.22189824 5.77810176 -2 8 C-2 7.34 -2 6.68 -2 6 C-2.99 5.67 -3.98 5.34 -5 5 C-3.35 3.35 -1.7 1.7 0 0 Z " fill="#63696D" transform="translate(92,212)"/>
<path d="M0 0 C0.66 0 1.32 0 2 0 C3.25664978 2.90600261 4 4.79604584 4 8 C3.34 8 2.68 8 2 8 C2 7.34 2 6.68 2 6 C1.34 6 0.68 6 0 6 C0 5.34 0 4.68 0 4 C-0.66 4 -1.32 4 -2 4 C-2 3.34 -2 2.68 -2 2 C-1.34 2 -0.68 2 0 2 C0 1.34 0 0.68 0 0 Z " fill="#676D72" transform="translate(158,207)"/>
<path d="M0 0 C-3.5087188 3.09592835 -6.49197399 4.74194623 -11 6 C-7.34769214 1.25199978 -6.01084259 -0.15818007 0 0 Z " fill="#686D72" transform="translate(118,192)"/>
<path d="M0 0 C4.8 2.46153846 4.8 2.46153846 5.8125 5.1875 C5.874375 5.785625 5.93625 6.38375 6 7 C5.01 7 4.02 7 3 7 C3 6.34 3 5.68 3 5 C0.525 4.01 0.525 4.01 -2 3 C-1.34 2.01 -0.68 1.02 0 0 Z " fill="#5B6066" transform="translate(174,180)"/>
<path d="M0 0 C0 3 0 3 -2.5 5.6875 C-3.325 6.450625 -4.15 7.21375 -5 8 C-5.99 7.67 -6.98 7.34 -8 7 C-5.36 4.69 -2.72 2.38 0 0 Z " fill="#575C61" transform="translate(271,314)"/>
<path d="M0 0 C1.32 0.66 2.64 1.32 4 2 C0.535 4.97 0.535 4.97 -3 8 C-2.22404875 4.89619499 -1.4731994 2.74997221 0 0 Z " fill="#75797D" transform="translate(254,313)"/>
<path d="M0 0 C-1.39332574 3.36720387 -2.9789286 4.9859524 -6 7 C-6.33 6.01 -6.66 5.02 -7 4 C-3.375 0 -3.375 0 0 0 Z " fill="#51575D" transform="translate(161,291)"/>
<path d="M0 0 C0.33 1.32 0.66 2.64 1 4 C-0.65 4.33 -2.3 4.66 -4 5 C-4.66 3.68 -5.32 2.36 -6 1 C-4.02 0.67 -2.04 0.34 0 0 Z " fill="#535B62" transform="translate(373,273)"/>
<path d="M0 0 C0 1.65 0 3.3 0 5 C-0.66 5 -1.32 5 -2 5 C-2.33 5.99 -2.66 6.98 -3 8 C-3.99 7.01 -4.98 6.02 -6 5 C-1.125 0 -1.125 0 0 0 Z " fill="#676F73" transform="translate(101,204)"/>
<path d="M0 0 C2.25 0.25 2.25 0.25 4 1 C2.35 2.65 0.7 4.3 -1 6 C-1.99 5.34 -2.98 4.68 -4 4 C-2.25 1.9375 -2.25 1.9375 0 0 Z " fill="#5F676C" transform="translate(105,199)"/>
<path d="M0 0 C2.625 0.9375 2.625 0.9375 5 2 C4.01 2.495 4.01 2.495 3 3 C3 3.66 3 4.32 3 5 C1.68 5.33 0.36 5.66 -1 6 C-1.33 4.35 -1.66 2.7 -2 1 C-1.34 0.67 -0.68 0.34 0 0 Z " fill="#434F57" transform="translate(320,177)"/>
<path d="M0 0 C-0.5590888 3.24271506 -1.4132178 4.93057424 -4 7 C-4.66 7 -5.32 7 -6 7 C-5.39816251 4.97954558 -4.72693904 2.97888961 -4 1 C-2 0 -2 0 0 0 Z " fill="#5A6367" transform="translate(342,362)"/>
<path d="M0 0 C0.99 0.33 1.98 0.66 3 1 C2 4 2 4 0.125 5.25 C-2 6 -2 6 -5 5 C-3.35 3.35 -1.7 1.7 0 0 Z " fill="#62686D" transform="translate(163,265)"/>
<path d="M0 0 C0.33 1.32 0.66 2.64 1 4 C-3.75 8 -3.75 8 -6 8 C-6 7.34 -6 6.68 -6 6 C-5.34 6 -4.68 6 -4 6 C-3.71125 5.38125 -3.4225 4.7625 -3.125 4.125 C-2 2 -2 2 0 0 Z " fill="#5AB3BE" transform="translate(216,150)"/>
<path d="M0 0 C0.99 0.66 1.98 1.32 3 2 C2.34 3.32 1.68 4.64 1 6 C-0.32 5.67 -1.64 5.34 -3 5 C-1.125 1.125 -1.125 1.125 0 0 Z " fill="#666D72" transform="translate(292,381)"/>
<path d="M0 0 C0.66 0.99 1.32 1.98 2 3 C1.01 4.485 1.01 4.485 0 6 C-2.625 6.1875 -2.625 6.1875 -5 6 C-3.35 4.02 -1.7 2.04 0 0 Z " fill="#63676C" transform="translate(127,257)"/>
<path d="M0 0 C0.99 0.33 1.98 0.66 3 1 C3 1.66 3 2.32 3 3 C1.35 3.66 -0.3 4.32 -2 5 C-2.66 4.34 -3.32 3.68 -4 3 C-2.1875 1.4375 -2.1875 1.4375 0 0 Z " fill="#414A50" transform="translate(373,258)"/>
<path d="M0 0 C0.6875 1.8125 0.6875 1.8125 1 4 C-0.25 5.75 -0.25 5.75 -2 7 C-2.99 7 -3.98 7 -5 7 C-3.70700306 4.11562221 -2.34058637 2.12780579 0 0 Z " fill="#676C70" transform="translate(336,236)"/>
<path d="M0 0 C1.32 0.66 2.64 1.32 4 2 C1.03 4.475 1.03 4.475 -2 7 C-1.125 1.125 -1.125 1.125 0 0 Z " fill="#6D7278" transform="translate(172,234)"/>
<path d="M0 0 C5.75 0.75 5.75 0.75 8 3 C7.34 3 6.68 3 6 3 C6.33 3.99 6.66 4.98 7 6 C6.34 6 5.68 6 5 6 C5 5.34 5 4.68 5 4 C4.34 4 3.68 4 3 4 C3 3.34 3 2.68 3 2 C2.01 1.67 1.02 1.34 0 1 C0 0.67 0 0.34 0 0 Z " fill="#73797D" transform="translate(138,192)"/>
<path d="M0 0 C1.5 1.1875 1.5 1.1875 3 3 C3.1875 5.6875 3.1875 5.6875 3 8 C1.68 7.67 0.36 7.34 -1 7 C-0.67 4.69 -0.34 2.38 0 0 Z " fill="#47B0BF" transform="translate(293,168)"/>
<path d="M0 0 C-2.31 1.65 -4.62 3.3 -7 5 C-7 3.35 -7 1.7 -7 0 C-4 -1 -4 -1 0 0 Z " fill="#5EBDC5" transform="translate(244,225)"/>
<path d="M0 0 C-1.39332574 3.36720387 -2.9789286 4.9859524 -6 7 C-6 4 -6 4 -4.125 1.8125 C-2 0 -2 0 0 0 Z " fill="#6C7076" transform="translate(190,371)"/>
<path d="M0 0 C0.33 0.66 0.66 1.32 1 2 C3.01669827 3.13350534 3.01669827 3.13350534 5 4 C5 4.99 5 5.98 5 7 C4.01 7.33 3.02 7.66 2 8 C0.74335022 5.09399739 0 3.20395416 0 0 Z " fill="#5E6469" transform="translate(171,352)"/>
<path d="M0 0 C0.66 0.33 1.32 0.66 2 1 C1.67 1.99 1.34 2.98 1 4 C-1.0625 4.6875 -1.0625 4.6875 -3 5 C-3.33 4.01 -3.66 3.02 -4 2 C-2.125 0.9375 -2.125 0.9375 0 0 Z " fill="#3E4A4E" transform="translate(197,343)"/>
<path d="M0 0 C0.33 0.66 0.66 1.32 1 2 C3.02463255 2.65213292 3.02463255 2.65213292 5 3 C3.02 4.32 1.04 5.64 -1 7 C-1.33 6.34 -1.66 5.68 -2 5 C-1.34 5 -0.68 5 0 5 C-0.2784375 4.0409375 -0.2784375 4.0409375 -0.5625 3.0625 C-0.7790625 2.0415625 -0.7790625 2.0415625 -1 1 C-0.67 0.67 -0.34 0.34 0 0 Z " fill="#636C72" transform="translate(365,340)"/>
<path d="M0 0 C2.5 0.3125 2.5 0.3125 5 1 C5.33 1.66 5.66 2.32 6 3 C5.01 4.485 5.01 4.485 4 6 C4 5.34 4 4.68 4 4 C3.34 4 2.68 4 2 4 C1.67 3.34 1.34 2.68 1 2 C0.34 1.67 -0.32 1.34 -1 1 C-0.67 0.67 -0.34 0.34 0 0 Z " fill="#62666B" transform="translate(288,333)"/>
<path d="M0 0 C-1.75 3.875 -1.75 3.875 -4 5 C-4 4.01 -4 3.02 -4 2 C-4.66 1.34 -5.32 0.68 -6 0 C-3.50907189 -1.24546405 -2.58919267 -0.7767578 0 0 Z " fill="#5D6469" transform="translate(335,323)"/>
<path d="M0 0 C0.66 0 1.32 0 2 0 C0.50902342 3.7952131 -1.75700849 5.61042731 -5 8 C-5 7.01 -5 6.02 -5 5 C-4.34 5 -3.68 5 -3 5 C-3 4.34 -3 3.68 -3 3 C-2.34 3 -1.68 3 -1 3 C-0.67 2.01 -0.34 1.02 0 0 Z " fill="#6A6D76" transform="translate(342,254)"/>
<path d="M0 0 C0.598125 0.20625 1.19625 0.4125 1.8125 0.625 C-0.57323379 2.51713369 -2.25925348 3.64891783 -5.1875 4.625 C-5.1875 3.635 -5.1875 2.645 -5.1875 1.625 C-2.1875 -0.375 -2.1875 -0.375 0 0 Z " fill="#656B6F" transform="translate(366.1875,251.375)"/>
<path d="M0 0 C0.99 0.33 1.98 0.66 3 1 C1.37660195 2.70884005 -0.29319053 4.37446717 -2 6 C-2.66 6 -3.32 6 -4 6 C-4 5.34 -4 4.68 -4 4 C-3.34 4 -2.68 4 -2 4 C-2 3.34 -2 2.68 -2 2 C-1.34 2 -0.68 2 0 2 C0 1.34 0 0.68 0 0 Z " fill="#6D7175" transform="translate(375,197)"/>
<path d="M0 0 C0.99 0.33 1.98 0.66 3 1 C2.01 4.3 1.02 7.6 0 11 C-0.33 11 -0.66 11 -1 11 C-0.67 7.37 -0.34 3.74 0 0 Z " fill="#67B8C1" transform="translate(221,166)"/>
<path d="M0 0 C2.475 0.99 2.475 0.99 5 2 C4.67 2.99 4.34 3.98 4 5 C1.525 4.01 1.525 4.01 -1 3 C-0.67 2.01 -0.34 1.02 0 0 Z M-3 3 C-1 4 -1 4 -1 4 Z " fill="#4BAFBB" transform="translate(275,145)"/>
<path d="M0 0 C3.465 1.98 3.465 1.98 7 4 C5.02 4.99 5.02 4.99 3 6 C2.67 5.34 2.34 4.68 2 4 C1.34 4 0.68 4 0 4 C0 2.68 0 1.36 0 0 Z " fill="#5F6568" transform="translate(160,344)"/>
<path d="M0 0 C0.99 0 1.98 0 3 0 C3.33 1.65 3.66 3.3 4 5 C3.01 5 2.02 5 1 5 C0.67 3.35 0.34 1.7 0 0 Z " fill="#5A5E63" transform="translate(130,338)"/>
<path d="M0 0 C0.66 0 1.32 0 2 0 C2.33 0.99 2.66 1.98 3 3 C1.35 4.32 -0.3 5.64 -2 7 C-2.125 4.625 -2.125 4.625 -2 2 C-1.34 1.34 -0.68 0.68 0 0 Z " fill="#535A5F" transform="translate(221,337)"/>
<path d="M0 0 C0.33 1.32 0.66 2.64 1 4 C0.01 4.66 -0.98 5.32 -2 6 C-2 5.34 -2 4.68 -2 4 C-3.32 3.67 -4.64 3.34 -6 3 C-4.02 2.01 -2.04 1.02 0 0 Z " fill="#404A52" transform="translate(269,319)"/>
<path d="M0 0 C0.66 0.33 1.32 0.66 2 1 C0.63016497 4.16115776 0.0109362 4.9927092 -3 7 C-3 5.35 -3 3.7 -3 2 C-2.01 2 -1.02 2 0 2 C0 1.34 0 0.68 0 0 Z " fill="#63656A" transform="translate(292,313)"/>
<path d="M0 0 C4.8 3.44615385 4.8 3.44615385 5.8125 6.25 C5.874375 6.8275 5.93625 7.405 6 8 C4.125 7.375 4.125 7.375 2 6 C0.75 2.875 0.75 2.875 0 0 Z " fill="#7A7E81" transform="translate(357,285)"/>
<path d="M0 0 C0.66 0.99 1.32 1.98 2 3 C-0.375 4.5625 -0.375 4.5625 -3 6 C-3.66 5.67 -4.32 5.34 -5 5 C-3.35 3.35 -1.7 1.7 0 0 Z " fill="#6C7478" transform="translate(143,285)"/>
<path d="M0 0 C0.66 0.66 1.32 1.32 2 2 C-0.31 3.65 -2.62 5.3 -5 7 C-3.70700306 4.11562221 -2.34058637 2.12780579 0 0 Z M2 0 C4 1 4 1 4 1 Z " fill="#3D444A" transform="translate(360,255)"/>
<path d="M0 0 C0.33 0.66 0.66 1.32 1 2 C1.99 2.33 2.98 2.66 4 3 C3.01 3.99 2.02 4.98 1 6 C0.34 5.67 -0.32 5.34 -1 5 C-1.625 2.9375 -1.625 2.9375 -2 1 C-1.34 0.67 -0.68 0.34 0 0 Z " fill="#596266" transform="translate(371,221)"/>
<path d="M0 0 C1.9375 0.75 1.9375 0.75 4 2 C4.75 4.125 4.75 4.125 5 6 C4.01 6 3.02 6 2 6 C1.34 4.02 0.68 2.04 0 0 Z " fill="#5AB5BC" transform="translate(310,202)"/>
<path d="M0 0 C1.875 0.3125 1.875 0.3125 4 1 C4.66 1.99 5.32 2.98 6 4 C4.68 4.33 3.36 4.66 2 5 C1.34 3.35 0.68 1.7 0 0 Z " fill="#686E73" transform="translate(167,198)"/>
<path d="M0 0 C1.98 0.495 1.98 0.495 4 1 C3.67 1.99 3.34 2.98 3 4 C0.9375 4.6875 0.9375 4.6875 -1 5 C-0.67 3.35 -0.34 1.7 0 0 Z " fill="#5B6065" transform="translate(292,141)"/>
<path d="M0 0 C1.65 1.32 3.3 2.64 5 4 C3.35 4.66 1.7 5.32 0 6 C-1.24546405 3.50907189 -0.7767578 2.58919267 0 0 Z " fill="#6A7276" transform="translate(290,85)"/>
<path d="M0 0 C0 1.98 0 3.96 0 6 C-0.33 5.34 -0.66 4.68 -1 4 C-2.65 4.33 -4.3 4.66 -6 5 C-1.125 0 -1.125 0 0 0 Z " fill="#6D7277" transform="translate(230,70)"/>
<path d="M0 0 C0.66 0.33 1.32 0.66 2 1 C0.69593116 3.01920337 -0.63823419 5.01924973 -2 7 C-2.33 7 -2.66 7 -3 7 C-3.1875 4.625 -3.1875 4.625 -3 2 C-2.01 1.34 -1.02 0.68 0 0 Z " fill="#585D62" transform="translate(233,67)"/>
</svg>
